%TF.GenerationSoftware,KiCad,Pcbnew,7.0.9*%
%TF.CreationDate,2024-01-07T19:57:38+00:00*%
%TF.ProjectId,INA381 Breakout,494e4133-3831-4204-9272-65616b6f7574,V24.01.0.1*%
%TF.SameCoordinates,PX8841978PY54c5a90*%
%TF.FileFunction,Copper,L4,Bot*%
%TF.FilePolarity,Positive*%
%FSLAX46Y46*%
G04 Gerber Fmt 4.6, Leading zero omitted, Abs format (unit mm)*
G04 Created by KiCad (PCBNEW 7.0.9) date 2024-01-07 19:57:38*
%MOMM*%
%LPD*%
G01*
G04 APERTURE LIST*
%TA.AperFunction,EtchedComponent*%
%ADD10C,0.254500*%
%TD*%
%TA.AperFunction,EtchedComponent*%
%ADD11C,0.001000*%
%TD*%
%TA.AperFunction,ComponentPad*%
%ADD12R,1.700000X1.700000*%
%TD*%
%TA.AperFunction,ComponentPad*%
%ADD13O,1.700000X1.700000*%
%TD*%
%TA.AperFunction,ViaPad*%
%ADD14C,0.700000*%
%TD*%
%TA.AperFunction,Conductor*%
%ADD15C,0.300000*%
%TD*%
G04 APERTURE END LIST*
%TO.C,REF\u002A\u002A*%
D10*
X5969250Y2159000D02*
G75*
G03*
X5969250Y2159000I-127250J0D01*
G01*
X5969250Y4191000D02*
G75*
G03*
X5969250Y4191000I-127250J0D01*
G01*
X5207250Y3175000D02*
G75*
G03*
X5207250Y3175000I-127250J0D01*
G01*
X4445250Y4191000D02*
G75*
G03*
X4445250Y4191000I-127250J0D01*
G01*
D11*
X6096000Y4191000D02*
X6096000Y2159000D01*
X5842000Y1905000D01*
X5588000Y1905000D01*
X5588000Y2921000D01*
X5080000Y2921000D01*
X5080000Y3429000D01*
X5588000Y3429000D01*
X5588000Y3937000D01*
X4318000Y3937000D01*
X4318000Y4445000D01*
X5842000Y4445000D01*
X6096000Y4191000D01*
%TA.AperFunction,EtchedComponent*%
G36*
X6096000Y4191000D02*
G01*
X6096000Y2159000D01*
X5842000Y1905000D01*
X5588000Y1905000D01*
X5588000Y2921000D01*
X5080000Y2921000D01*
X5080000Y3429000D01*
X5588000Y3429000D01*
X5588000Y3937000D01*
X4318000Y3937000D01*
X4318000Y4445000D01*
X5842000Y4445000D01*
X6096000Y4191000D01*
G37*
%TD.AperFunction*%
%TD*%
D12*
%TO.P,J1,1,Pin_1*%
%TO.N,VDD*%
X17780000Y5080000D03*
D13*
%TO.P,J1,2,Pin_2*%
%TO.N,/~{ALERT}*%
X17780000Y2540000D03*
%TO.P,J1,3,Pin_3*%
%TO.N,Net-(J1-Pin_3)*%
X17780000Y0D03*
%TO.P,J1,4,Pin_4*%
%TO.N,/CMPREF*%
X17780000Y-2540000D03*
%TO.P,J1,5,Pin_5*%
%TO.N,GND*%
X17780000Y-5080000D03*
%TD*%
D12*
%TO.P,J2,1,Pin_1*%
%TO.N,/RES+*%
X0Y-5080000D03*
D13*
%TO.P,J2,2,Pin_2*%
X0Y-2540000D03*
%TO.P,J2,3,Pin_3*%
%TO.N,unconnected-(J2-Pin_3-Pad3)*%
X0Y0D03*
%TO.P,J2,4,Pin_4*%
%TO.N,/RES-*%
X0Y2540000D03*
%TO.P,J2,5,Pin_5*%
X0Y5080000D03*
%TD*%
D14*
%TO.N,GND*%
X15875000Y-4826000D03*
X5474000Y-5865000D03*
X13208000Y5700000D03*
X14351000Y-1915000D03*
X14351000Y-5725000D03*
X16002000Y4318000D03*
X9981750Y-837750D03*
X5461000Y5845000D03*
X7366000Y-5842000D03*
%TO.N,VDD*%
X11811000Y3048000D03*
X11049000Y-10000D03*
X14351000Y-3834500D03*
X9271000Y-5842000D03*
X7366000Y-4318000D03*
%TO.N,/~{ALERT}*%
X10668000Y-3185000D03*
%TO.N,/CMPIN*%
X9144000Y5080000D03*
X9144000Y3429000D03*
%TD*%
D15*
%TO.N,/~{ALERT}*%
X12700000Y2032000D02*
X13208000Y2540000D01*
X10668000Y-3185000D02*
X12182000Y-3185000D01*
X12700000Y-2667000D02*
X12700000Y2032000D01*
X12182000Y-3185000D02*
X12700000Y-2667000D01*
X13208000Y2540000D02*
X17780000Y2540000D01*
%TO.N,/CMPIN*%
X9144000Y3429000D02*
X9144000Y5080000D01*
%TD*%
M02*
