%TF.GenerationSoftware,KiCad,Pcbnew,7.0.9*%
%TF.CreationDate,2024-01-07T19:57:31+00:00*%
%TF.ProjectId,INA381 Breakout,494e4133-3831-4204-9272-65616b6f7574,V24.01.0.1*%
%TF.SameCoordinates,PX8841978PY54c5a90*%
%TF.FileFunction,Drillmap*%
%TF.FilePolarity,Positive*%
%FSLAX45Y45*%
G04 Gerber Fmt 4.5, Leading zero omitted, Abs format (unit mm)*
G04 Created by KiCad (PCBNEW 7.0.9) date 2024-01-07 19:57:31*
%MOMM*%
%LPD*%
G01*
G04 APERTURE LIST*
%ADD10C,0.100000*%
%ADD11C,0.200000*%
G04 APERTURE END LIST*
D10*
X1968500Y571500D02*
G75*
G03*
X1841500Y698500I-127000J0D01*
G01*
X1841500Y-698500D02*
G75*
G03*
X1968500Y-571500I0J127000D01*
G01*
X-63500Y698500D02*
G75*
G03*
X-190500Y571500I0J-127000D01*
G01*
X-190500Y-571500D02*
G75*
G03*
X-63500Y-698500I127000J0D01*
G01*
X-190500Y571500D02*
X-190500Y-571500D01*
X-63500Y698500D02*
X1841500Y698500D01*
X1968500Y-571500D02*
X1968500Y571500D01*
X1841500Y-698500D02*
X-63500Y-698500D01*
D11*
X65277Y-1014984D02*
X65277Y-814984D01*
X65277Y-814984D02*
X112896Y-814984D01*
X112896Y-814984D02*
X141467Y-824508D01*
X141467Y-824508D02*
X160515Y-843555D01*
X160515Y-843555D02*
X170039Y-862603D01*
X170039Y-862603D02*
X179562Y-900698D01*
X179562Y-900698D02*
X179562Y-929269D01*
X179562Y-929269D02*
X170039Y-967365D01*
X170039Y-967365D02*
X160515Y-986412D01*
X160515Y-986412D02*
X141467Y-1005460D01*
X141467Y-1005460D02*
X112896Y-1014984D01*
X112896Y-1014984D02*
X65277Y-1014984D01*
X265277Y-1014984D02*
X265277Y-881650D01*
X265277Y-919746D02*
X274801Y-900698D01*
X274801Y-900698D02*
X284324Y-891174D01*
X284324Y-891174D02*
X303372Y-881650D01*
X303372Y-881650D02*
X322420Y-881650D01*
X389086Y-1014984D02*
X389086Y-881650D01*
X389086Y-814984D02*
X379562Y-824508D01*
X379562Y-824508D02*
X389086Y-834031D01*
X389086Y-834031D02*
X398610Y-824508D01*
X398610Y-824508D02*
X389086Y-814984D01*
X389086Y-814984D02*
X389086Y-834031D01*
X512896Y-1014984D02*
X493848Y-1005460D01*
X493848Y-1005460D02*
X484324Y-986412D01*
X484324Y-986412D02*
X484324Y-814984D01*
X617658Y-1014984D02*
X598610Y-1005460D01*
X598610Y-1005460D02*
X589086Y-986412D01*
X589086Y-986412D02*
X589086Y-814984D01*
X846229Y-1014984D02*
X846229Y-814984D01*
X846229Y-814984D02*
X912896Y-957841D01*
X912896Y-957841D02*
X979562Y-814984D01*
X979562Y-814984D02*
X979562Y-1014984D01*
X1160515Y-1014984D02*
X1160515Y-910222D01*
X1160515Y-910222D02*
X1150991Y-891174D01*
X1150991Y-891174D02*
X1131944Y-881650D01*
X1131944Y-881650D02*
X1093848Y-881650D01*
X1093848Y-881650D02*
X1074801Y-891174D01*
X1160515Y-1005460D02*
X1141467Y-1014984D01*
X1141467Y-1014984D02*
X1093848Y-1014984D01*
X1093848Y-1014984D02*
X1074801Y-1005460D01*
X1074801Y-1005460D02*
X1065277Y-986412D01*
X1065277Y-986412D02*
X1065277Y-967365D01*
X1065277Y-967365D02*
X1074801Y-948317D01*
X1074801Y-948317D02*
X1093848Y-938793D01*
X1093848Y-938793D02*
X1141467Y-938793D01*
X1141467Y-938793D02*
X1160515Y-929269D01*
X1255753Y-881650D02*
X1255753Y-1081650D01*
X1255753Y-891174D02*
X1274801Y-881650D01*
X1274801Y-881650D02*
X1312896Y-881650D01*
X1312896Y-881650D02*
X1331944Y-891174D01*
X1331944Y-891174D02*
X1341467Y-900698D01*
X1341467Y-900698D02*
X1350991Y-919746D01*
X1350991Y-919746D02*
X1350991Y-976888D01*
X1350991Y-976888D02*
X1341467Y-995936D01*
X1341467Y-995936D02*
X1331944Y-1005460D01*
X1331944Y-1005460D02*
X1312896Y-1014984D01*
X1312896Y-1014984D02*
X1274801Y-1014984D01*
X1274801Y-1014984D02*
X1255753Y-1005460D01*
X1436705Y-995936D02*
X1446229Y-1005460D01*
X1446229Y-1005460D02*
X1436705Y-1014984D01*
X1436705Y-1014984D02*
X1427182Y-1005460D01*
X1427182Y-1005460D02*
X1436705Y-995936D01*
X1436705Y-995936D02*
X1436705Y-1014984D01*
X1436705Y-891174D02*
X1446229Y-900698D01*
X1446229Y-900698D02*
X1436705Y-910222D01*
X1436705Y-910222D02*
X1427182Y-900698D01*
X1427182Y-900698D02*
X1436705Y-891174D01*
X1436705Y-891174D02*
X1436705Y-910222D01*
M02*
