%TF.GenerationSoftware,KiCad,Pcbnew,7.0.9*%
%TF.CreationDate,2024-01-07T19:57:38+00:00*%
%TF.ProjectId,INA381 Breakout,494e4133-3831-4204-9272-65616b6f7574,V24.01.0.1*%
%TF.SameCoordinates,PX8841978PY54c5a90*%
%TF.FileFunction,Copper,L1,Top*%
%TF.FilePolarity,Positive*%
%FSLAX46Y46*%
G04 Gerber Fmt 4.6, Leading zero omitted, Abs format (unit mm)*
G04 Created by KiCad (PCBNEW 7.0.9) date 2024-01-07 19:57:38*
%MOMM*%
%LPD*%
G01*
G04 APERTURE LIST*
G04 Aperture macros list*
%AMRoundRect*
0 Rectangle with rounded corners*
0 $1 Rounding radius*
0 $2 $3 $4 $5 $6 $7 $8 $9 X,Y pos of 4 corners*
0 Add a 4 corners polygon primitive as box body*
4,1,4,$2,$3,$4,$5,$6,$7,$8,$9,$2,$3,0*
0 Add four circle primitives for the rounded corners*
1,1,$1+$1,$2,$3*
1,1,$1+$1,$4,$5*
1,1,$1+$1,$6,$7*
1,1,$1+$1,$8,$9*
0 Add four rect primitives between the rounded corners*
20,1,$1+$1,$2,$3,$4,$5,0*
20,1,$1+$1,$4,$5,$6,$7,0*
20,1,$1+$1,$6,$7,$8,$9,0*
20,1,$1+$1,$8,$9,$2,$3,0*%
G04 Aperture macros list end*
%TA.AperFunction,SMDPad,CuDef*%
%ADD10RoundRect,0.225000X-0.250000X0.225000X-0.250000X-0.225000X0.250000X-0.225000X0.250000X0.225000X0*%
%TD*%
%TA.AperFunction,SMDPad,CuDef*%
%ADD11RoundRect,0.200000X0.275000X-0.200000X0.275000X0.200000X-0.275000X0.200000X-0.275000X-0.200000X0*%
%TD*%
%TA.AperFunction,SMDPad,CuDef*%
%ADD12RoundRect,0.225000X0.250000X-0.225000X0.250000X0.225000X-0.250000X0.225000X-0.250000X-0.225000X0*%
%TD*%
%TA.AperFunction,SMDPad,CuDef*%
%ADD13RoundRect,0.200000X-0.200000X-0.275000X0.200000X-0.275000X0.200000X0.275000X-0.200000X0.275000X0*%
%TD*%
%TA.AperFunction,SMDPad,CuDef*%
%ADD14RoundRect,0.250000X0.625000X-0.312500X0.625000X0.312500X-0.625000X0.312500X-0.625000X-0.312500X0*%
%TD*%
%TA.AperFunction,SMDPad,CuDef*%
%ADD15RoundRect,0.075000X0.075000X-0.650000X0.075000X0.650000X-0.075000X0.650000X-0.075000X-0.650000X0*%
%TD*%
%TA.AperFunction,SMDPad,CuDef*%
%ADD16RoundRect,0.150000X-0.587500X-0.150000X0.587500X-0.150000X0.587500X0.150000X-0.587500X0.150000X0*%
%TD*%
%TA.AperFunction,SMDPad,CuDef*%
%ADD17RoundRect,0.200000X0.200000X0.275000X-0.200000X0.275000X-0.200000X-0.275000X0.200000X-0.275000X0*%
%TD*%
%TA.AperFunction,SMDPad,CuDef*%
%ADD18R,2.000000X2.000000*%
%TD*%
%TA.AperFunction,ComponentPad*%
%ADD19R,1.700000X1.700000*%
%TD*%
%TA.AperFunction,ComponentPad*%
%ADD20O,1.700000X1.700000*%
%TD*%
%TA.AperFunction,ViaPad*%
%ADD21C,0.700000*%
%TD*%
%TA.AperFunction,Conductor*%
%ADD22C,0.300000*%
%TD*%
%TA.AperFunction,Conductor*%
%ADD23C,0.500000*%
%TD*%
%TA.AperFunction,Conductor*%
%ADD24C,0.127000*%
%TD*%
G04 APERTURE END LIST*
D10*
%TO.P,C6,1*%
%TO.N,/CMPREF*%
X15875000Y-2400000D03*
%TO.P,C6,2*%
%TO.N,GND*%
X15875000Y-3950000D03*
%TD*%
D11*
%TO.P,R3,1*%
%TO.N,/VOUT*%
X10160000Y4245000D03*
%TO.P,R3,2*%
%TO.N,Net-(D1-COM)*%
X10160000Y5895000D03*
%TD*%
D12*
%TO.P,C2,1*%
%TO.N,/IN+*%
X6350000Y-785000D03*
%TO.P,C2,2*%
%TO.N,/IN-*%
X6350000Y765000D03*
%TD*%
D13*
%TO.P,R7,1*%
%TO.N,VDD*%
X11875000Y-10000D03*
%TO.P,R7,2*%
%TO.N,/CMPREF*%
X13525000Y-10000D03*
%TD*%
D12*
%TO.P,C5,1*%
%TO.N,/IN-*%
X6350000Y4295000D03*
%TO.P,C5,2*%
%TO.N,GND*%
X6350000Y5845000D03*
%TD*%
D14*
%TO.P,R5,1*%
%TO.N,/RES+*%
X2540000Y-1472500D03*
%TO.P,R5,2*%
%TO.N,/RES-*%
X2540000Y1452500D03*
%TD*%
D15*
%TO.P,U1,1,IN+*%
%TO.N,/IN+*%
X7890000Y-2210000D03*
%TO.P,U1,2,VS+*%
%TO.N,VDD*%
X8390000Y-2210000D03*
%TO.P,U1,3,~{ALERT}*%
%TO.N,/~{ALERT}*%
X8890000Y-2210000D03*
%TO.P,U1,4,RESET*%
%TO.N,/RESET*%
X9390000Y-2210000D03*
%TO.P,U1,5,GND*%
%TO.N,GND*%
X9890000Y-2210000D03*
%TO.P,U1,6,NC*%
%TO.N,unconnected-(U1-NC-Pad6)*%
X9890000Y2190000D03*
%TO.P,U1,7,CMPREF*%
%TO.N,/CMPREF*%
X9390000Y2190000D03*
%TO.P,U1,8,CMPIN*%
%TO.N,/CMPIN*%
X8890000Y2190000D03*
%TO.P,U1,9,VOUT*%
%TO.N,/VOUT*%
X8390000Y2190000D03*
%TO.P,U1,10,IN-*%
%TO.N,/IN-*%
X7890000Y2190000D03*
%TD*%
D16*
%TO.P,D1,1,A*%
%TO.N,GND*%
X12065000Y5700000D03*
%TO.P,D1,2,K*%
%TO.N,VDD*%
X12065000Y3800000D03*
%TO.P,D1,3,COM*%
%TO.N,Net-(D1-COM)*%
X13940000Y4750000D03*
%TD*%
D11*
%TO.P,R6,1*%
%TO.N,/VOUT*%
X8255000Y4245000D03*
%TO.P,R6,2*%
%TO.N,/CMPIN*%
X8255000Y5895000D03*
%TD*%
D13*
%TO.P,R11,1*%
%TO.N,/RESET*%
X11875000Y-5725000D03*
%TO.P,R11,2*%
%TO.N,GND*%
X13525000Y-5725000D03*
%TD*%
D12*
%TO.P,C3,1*%
%TO.N,Net-(J1-Pin_3)*%
X16002000Y1905000D03*
%TO.P,C3,2*%
%TO.N,GND*%
X16002000Y3455000D03*
%TD*%
D17*
%TO.P,R9,1*%
%TO.N,VDD*%
X13525000Y-3820000D03*
%TO.P,R9,2*%
%TO.N,/RESET*%
X11875000Y-3820000D03*
%TD*%
D13*
%TO.P,R10,1*%
%TO.N,/CMPREF*%
X11875000Y-1915000D03*
%TO.P,R10,2*%
%TO.N,GND*%
X13525000Y-1915000D03*
%TD*%
%TO.P,R4,1*%
%TO.N,Net-(D1-COM)*%
X11875000Y1895000D03*
%TO.P,R4,2*%
%TO.N,Net-(J1-Pin_3)*%
X13525000Y1895000D03*
%TD*%
D10*
%TO.P,C4,1*%
%TO.N,/IN+*%
X6350000Y-4315000D03*
%TO.P,C4,2*%
%TO.N,GND*%
X6350000Y-5865000D03*
%TD*%
D18*
%TO.P,J3,1,Pin_1*%
%TO.N,/RES+*%
X2540000Y-5090000D03*
%TD*%
D13*
%TO.P,R2,1*%
%TO.N,/RES+*%
X4445000Y-2550000D03*
%TO.P,R2,2*%
%TO.N,/IN+*%
X6095000Y-2550000D03*
%TD*%
%TO.P,R8,1*%
%TO.N,/RES-*%
X4445000Y2530000D03*
%TO.P,R8,2*%
%TO.N,/IN-*%
X6095000Y2530000D03*
%TD*%
D12*
%TO.P,C1,1*%
%TO.N,GND*%
X8255000Y-5865000D03*
%TO.P,C1,2*%
%TO.N,VDD*%
X8255000Y-4315000D03*
%TD*%
D18*
%TO.P,J5,1,Pin_1*%
%TO.N,/RES-*%
X2540000Y5080000D03*
%TD*%
D11*
%TO.P,R1,1*%
%TO.N,VDD*%
X10160000Y-5915000D03*
%TO.P,R1,2*%
%TO.N,/~{ALERT}*%
X10160000Y-4265000D03*
%TD*%
D19*
%TO.P,J1,1,Pin_1*%
%TO.N,VDD*%
X17780000Y5080000D03*
D20*
%TO.P,J1,2,Pin_2*%
%TO.N,/~{ALERT}*%
X17780000Y2540000D03*
%TO.P,J1,3,Pin_3*%
%TO.N,Net-(J1-Pin_3)*%
X17780000Y0D03*
%TO.P,J1,4,Pin_4*%
%TO.N,/CMPREF*%
X17780000Y-2540000D03*
%TO.P,J1,5,Pin_5*%
%TO.N,GND*%
X17780000Y-5080000D03*
%TD*%
D19*
%TO.P,J2,1,Pin_1*%
%TO.N,/RES+*%
X0Y-5080000D03*
D20*
%TO.P,J2,2,Pin_2*%
X0Y-2540000D03*
%TO.P,J2,3,Pin_3*%
%TO.N,unconnected-(J2-Pin_3-Pad3)*%
X0Y0D03*
%TO.P,J2,4,Pin_4*%
%TO.N,/RES-*%
X0Y2540000D03*
%TO.P,J2,5,Pin_5*%
X0Y5080000D03*
%TD*%
D21*
%TO.N,GND*%
X15875000Y-4826000D03*
X5474000Y-5865000D03*
X13208000Y5700000D03*
X14351000Y-1915000D03*
X14351000Y-5725000D03*
X16002000Y4318000D03*
X9981750Y-837750D03*
X5461000Y5845000D03*
X7366000Y-5842000D03*
%TO.N,VDD*%
X11811000Y3048000D03*
X11049000Y-10000D03*
X14351000Y-3834500D03*
X9271000Y-5842000D03*
X7366000Y-4318000D03*
%TO.N,/~{ALERT}*%
X10668000Y-3185000D03*
%TO.N,/CMPIN*%
X9144000Y5080000D03*
X9144000Y3429000D03*
%TD*%
D22*
%TO.N,GND*%
X15875000Y-3950000D02*
X15875000Y-4826000D01*
%TO.N,/CMPREF*%
X15230000Y-10000D02*
X13525000Y-10000D01*
X15240000Y0D02*
X15230000Y-10000D01*
X15875000Y-635000D02*
X15240000Y0D01*
X15875000Y-2400000D02*
X15875000Y-635000D01*
X17640000Y-2400000D02*
X17780000Y-2540000D01*
X15875000Y-2400000D02*
X17640000Y-2400000D01*
D23*
%TO.N,GND*%
X7410341Y-5797659D02*
X8255000Y-5797659D01*
X7366000Y-5842000D02*
X7410341Y-5797659D01*
D22*
X13525000Y-1915000D02*
X14351000Y-1915000D01*
X8255000Y-5865000D02*
X8255000Y-5797659D01*
X9890000Y-929500D02*
X9890000Y-2210000D01*
X16002000Y3455000D02*
X16002000Y4318000D01*
X9981750Y-837750D02*
X9890000Y-929500D01*
X5461000Y5845000D02*
X6350000Y5845000D01*
X13208000Y5700000D02*
X12065000Y5700000D01*
X5474000Y-5865000D02*
X6350000Y-5865000D01*
X13525000Y-5725000D02*
X14351000Y-5725000D01*
%TO.N,VDD*%
X8390000Y-2210000D02*
X8390000Y-4180000D01*
X10087000Y-5842000D02*
X10160000Y-5915000D01*
X11811000Y3048000D02*
X12065000Y3302000D01*
X9271000Y-5842000D02*
X10087000Y-5842000D01*
X8390000Y-4180000D02*
X8255000Y-4315000D01*
X14351000Y-3834500D02*
X14336500Y-3820000D01*
X12065000Y3302000D02*
X12065000Y3800000D01*
D23*
X7366000Y-4318000D02*
X8252000Y-4318000D01*
X8252000Y-4318000D02*
X8255000Y-4315000D01*
D22*
X11049000Y-10000D02*
X11875000Y-10000D01*
X14336500Y-3820000D02*
X13525000Y-3820000D01*
%TO.N,Net-(J1-Pin_3)*%
X16002000Y381000D02*
X16383000Y0D01*
X16383000Y0D02*
X17780000Y0D01*
X13525000Y1895000D02*
X15992000Y1895000D01*
X16002000Y1905000D02*
X16002000Y381000D01*
X15992000Y1895000D02*
X16002000Y1905000D01*
%TO.N,Net-(D1-COM)*%
X11928000Y1895000D02*
X13940000Y3907000D01*
X11305000Y4750000D02*
X13940000Y4750000D01*
X10160000Y5895000D02*
X11305000Y4750000D01*
X13940000Y3907000D02*
X13940000Y4750000D01*
X11875000Y1895000D02*
X11928000Y1895000D01*
D24*
%TO.N,/RES+*%
X2540000Y-264000D02*
X2540000Y-1472500D01*
X4445000Y-518000D02*
X4191000Y-264000D01*
X4191000Y-264000D02*
X2540000Y-264000D01*
X4445000Y-2550000D02*
X4445000Y-518000D01*
%TO.N,/RES-*%
X4191000Y244000D02*
X2540000Y244000D01*
X4445000Y2530000D02*
X4445000Y498000D01*
X4445000Y498000D02*
X4191000Y244000D01*
X2540000Y244000D02*
X2540000Y1452500D01*
D22*
%TO.N,/IN+*%
X7550000Y-2550000D02*
X7890000Y-2210000D01*
X6350000Y-4315000D02*
X6350000Y-2805000D01*
X6095000Y-2550000D02*
X7550000Y-2550000D01*
X6350000Y-2805000D02*
X6095000Y-2550000D01*
X6095000Y-2550000D02*
X6095000Y-1040000D01*
X6095000Y-1040000D02*
X6350000Y-785000D01*
%TO.N,/IN-*%
X6095000Y2530000D02*
X7550000Y2530000D01*
X6350000Y2785000D02*
X6095000Y2530000D01*
X6095000Y1020000D02*
X6350000Y765000D01*
X6095000Y2530000D02*
X6095000Y1020000D01*
X6350000Y4295000D02*
X6350000Y2785000D01*
X7550000Y2530000D02*
X7890000Y2190000D01*
%TO.N,/~{ALERT}*%
X8890000Y-2210000D02*
X8890000Y-3556000D01*
X9599000Y-4265000D02*
X10160000Y-4265000D01*
X8890000Y-3556000D02*
X9599000Y-4265000D01*
X10160000Y-3693000D02*
X10160000Y-4265000D01*
X10668000Y-3185000D02*
X10160000Y-3693000D01*
%TO.N,/CMPREF*%
X13208000Y889000D02*
X13525000Y572000D01*
X9390000Y2190000D02*
X9390000Y1216642D01*
X9717642Y889000D02*
X13208000Y889000D01*
X12319000Y-1016000D02*
X11875000Y-1460000D01*
X13525000Y572000D02*
X13525000Y-10000D01*
X9390000Y1216642D02*
X9717642Y889000D01*
X13525000Y-455000D02*
X12964000Y-1016000D01*
X12964000Y-1016000D02*
X12319000Y-1016000D01*
X11875000Y-1460000D02*
X11875000Y-1915000D01*
X13525000Y-10000D02*
X13525000Y-455000D01*
%TO.N,/VOUT*%
X8390000Y4110000D02*
X8255000Y4245000D01*
X8390000Y2190000D02*
X8390000Y4110000D01*
X8255000Y4245000D02*
X10160000Y4245000D01*
%TO.N,/CMPIN*%
X8890000Y3175000D02*
X8890000Y2190000D01*
X9144000Y3429000D02*
X8890000Y3175000D01*
X9070000Y5080000D02*
X8255000Y5895000D01*
X9144000Y5080000D02*
X9070000Y5080000D01*
%TO.N,/RESET*%
X11875000Y-3820000D02*
X11875000Y-5725000D01*
X10795000Y-2159000D02*
X11875000Y-3239000D01*
X11875000Y-3239000D02*
X11875000Y-3820000D01*
X9390000Y-1165239D02*
X8890000Y-665239D01*
X8890000Y-254000D02*
X9271000Y127000D01*
X10795000Y-731761D02*
X10795000Y-2159000D01*
X9271000Y127000D02*
X9936239Y127000D01*
X8890000Y-665239D02*
X8890000Y-254000D01*
X9936239Y127000D02*
X10795000Y-731761D01*
X9390000Y-2210000D02*
X9390000Y-1165239D01*
%TD*%
%TA.AperFunction,Conductor*%
%TO.N,/RES+*%
G36*
X3060031Y-762530D02*
G01*
X3151879Y-774622D01*
X3169223Y-776906D01*
X3200491Y-785284D01*
X3290918Y-822740D01*
X3318952Y-838925D01*
X3396602Y-898509D01*
X3419491Y-921398D01*
X3479074Y-999048D01*
X3495259Y-1027081D01*
X3532715Y-1117508D01*
X3541093Y-1148775D01*
X3555469Y-1257964D01*
X3556000Y-1266065D01*
X3556000Y-5591934D01*
X3555469Y-5600035D01*
X3541093Y-5709224D01*
X3532715Y-5740491D01*
X3495259Y-5830918D01*
X3479074Y-5858951D01*
X3419491Y-5936601D01*
X3396601Y-5959491D01*
X3318951Y-6019074D01*
X3290918Y-6035259D01*
X3200491Y-6072715D01*
X3169224Y-6081093D01*
X3080783Y-6092737D01*
X3060031Y-6095469D01*
X3051934Y-6096000D01*
X-511934Y-6096000D01*
X-520032Y-6095469D01*
X-543543Y-6092374D01*
X-629225Y-6081093D01*
X-660492Y-6072715D01*
X-750919Y-6035259D01*
X-778952Y-6019074D01*
X-856602Y-5959491D01*
X-879492Y-5936601D01*
X-939075Y-5858951D01*
X-955260Y-5830918D01*
X-992716Y-5740491D01*
X-1001094Y-5709223D01*
X-1015469Y-5600035D01*
X-1016000Y-5591933D01*
X-1016000Y-2028066D01*
X-1015469Y-2019964D01*
X-1001094Y-1910776D01*
X-992716Y-1879508D01*
X-955260Y-1789081D01*
X-939077Y-1761050D01*
X-879487Y-1683392D01*
X-856608Y-1660513D01*
X-778950Y-1600923D01*
X-750921Y-1584740D01*
X-660491Y-1547283D01*
X-629225Y-1538906D01*
X-520033Y-1524530D01*
X-511933Y-1524000D01*
X1143005Y-1524000D01*
X1524000Y-1524000D01*
X1524000Y-1143000D01*
X1539576Y-1044652D01*
X1551560Y-1007771D01*
X1587851Y-936546D01*
X1610648Y-905170D01*
X1667170Y-848648D01*
X1698546Y-825851D01*
X1769771Y-789560D01*
X1806654Y-777576D01*
X1895369Y-763525D01*
X1914756Y-762000D01*
X3051933Y-762000D01*
X3060031Y-762530D01*
G37*
%TD.AperFunction*%
%TD*%
%TA.AperFunction,Conductor*%
%TO.N,/RES-*%
G36*
X3060031Y6095470D02*
G01*
X3151879Y6083378D01*
X3169223Y6081094D01*
X3200491Y6072716D01*
X3290918Y6035260D01*
X3318952Y6019075D01*
X3396602Y5959491D01*
X3419491Y5936602D01*
X3479074Y5858952D01*
X3495259Y5830919D01*
X3532715Y5740492D01*
X3541093Y5709225D01*
X3555469Y5600036D01*
X3556000Y5591935D01*
X3556000Y1266066D01*
X3555469Y1257965D01*
X3541093Y1148776D01*
X3532715Y1117509D01*
X3495259Y1027082D01*
X3479074Y999049D01*
X3419491Y921399D01*
X3396601Y898509D01*
X3318951Y838926D01*
X3290918Y822741D01*
X3200491Y785285D01*
X3169224Y776907D01*
X3080783Y765263D01*
X3060031Y762531D01*
X3051934Y762000D01*
X1914756Y762000D01*
X1895359Y763527D01*
X1852506Y770314D01*
X1806662Y777575D01*
X1769765Y789564D01*
X1698551Y825850D01*
X1667167Y848652D01*
X1610651Y905168D01*
X1587850Y936550D01*
X1551561Y1007770D01*
X1539576Y1044655D01*
X1524000Y1143000D01*
X1524000Y1524000D01*
X1143005Y1524000D01*
X-511934Y1524000D01*
X-520032Y1524531D01*
X-543543Y1527626D01*
X-629225Y1538907D01*
X-660492Y1547285D01*
X-750919Y1584741D01*
X-778952Y1600926D01*
X-856602Y1660509D01*
X-879492Y1683399D01*
X-939075Y1761049D01*
X-955260Y1789082D01*
X-992716Y1879509D01*
X-1001094Y1910777D01*
X-1015469Y2019965D01*
X-1016000Y2028067D01*
X-1016000Y5591934D01*
X-1015469Y5600036D01*
X-1001094Y5709224D01*
X-992716Y5740492D01*
X-955260Y5830919D01*
X-939077Y5858950D01*
X-879487Y5936608D01*
X-856608Y5959487D01*
X-778950Y6019077D01*
X-750921Y6035260D01*
X-660491Y6072717D01*
X-629225Y6081094D01*
X-520033Y6095470D01*
X-511933Y6096000D01*
X3051933Y6096000D01*
X3060031Y6095470D01*
G37*
%TD.AperFunction*%
%TD*%
M02*
