%TF.GenerationSoftware,KiCad,Pcbnew,7.0.9*%
%TF.CreationDate,2024-01-07T19:57:38+00:00*%
%TF.ProjectId,INA381 Breakout,494e4133-3831-4204-9272-65616b6f7574,V24.01.0.1*%
%TF.SameCoordinates,PX8841978PY54c5a90*%
%TF.FileFunction,Copper,L2,Inr*%
%TF.FilePolarity,Positive*%
%FSLAX46Y46*%
G04 Gerber Fmt 4.6, Leading zero omitted, Abs format (unit mm)*
G04 Created by KiCad (PCBNEW 7.0.9) date 2024-01-07 19:57:38*
%MOMM*%
%LPD*%
G01*
G04 APERTURE LIST*
%TA.AperFunction,ComponentPad*%
%ADD10R,1.700000X1.700000*%
%TD*%
%TA.AperFunction,ComponentPad*%
%ADD11O,1.700000X1.700000*%
%TD*%
%TA.AperFunction,ViaPad*%
%ADD12C,0.700000*%
%TD*%
G04 APERTURE END LIST*
D10*
%TO.N,VDD*%
%TO.C,J1*%
X17780000Y5080000D03*
D11*
%TO.N,/~{ALERT}*%
X17780000Y2540000D03*
%TO.N,Net-(J1-Pin_3)*%
X17780000Y0D03*
%TO.N,/CMPREF*%
X17780000Y-2540000D03*
%TO.N,GND*%
X17780000Y-5080000D03*
%TD*%
D10*
%TO.N,/RES+*%
%TO.C,J2*%
X0Y-5080000D03*
D11*
X0Y-2540000D03*
%TO.N,unconnected-(J2-Pin_3-Pad3)*%
X0Y0D03*
%TO.N,/RES-*%
X0Y2540000D03*
X0Y5080000D03*
%TD*%
D12*
%TO.N,GND*%
X15875000Y-4826000D03*
X5474000Y-5865000D03*
X13208000Y5700000D03*
X14351000Y-1915000D03*
X14351000Y-5725000D03*
X16002000Y4318000D03*
X9981750Y-837750D03*
X5461000Y5845000D03*
X7366000Y-5842000D03*
%TO.N,VDD*%
X11811000Y3048000D03*
X11049000Y-10000D03*
X14351000Y-3834500D03*
X9271000Y-5842000D03*
X7366000Y-4318000D03*
%TO.N,/~{ALERT}*%
X10668000Y-3185000D03*
%TO.N,/CMPIN*%
X9144000Y5080000D03*
X9144000Y3429000D03*
%TD*%
%TA.AperFunction,Conductor*%
%TO.N,GND*%
G36*
X18417694Y6684265D02*
G01*
X18572546Y6670717D01*
X18593823Y6666966D01*
X18736111Y6628840D01*
X18756420Y6621447D01*
X18889914Y6559198D01*
X18908633Y6548391D01*
X19029299Y6463900D01*
X19045857Y6450006D01*
X19150005Y6345858D01*
X19163899Y6329300D01*
X19248390Y6208634D01*
X19259197Y6189915D01*
X19321446Y6056421D01*
X19328839Y6036111D01*
X19366963Y5893831D01*
X19370716Y5872545D01*
X19384264Y5717700D01*
X19384500Y5712294D01*
X19384500Y-5712293D01*
X19384264Y-5717699D01*
X19370716Y-5872544D01*
X19366963Y-5893830D01*
X19328839Y-6036110D01*
X19321446Y-6056420D01*
X19259197Y-6189914D01*
X19248390Y-6208633D01*
X19163899Y-6329299D01*
X19150005Y-6345857D01*
X19045857Y-6450005D01*
X19029299Y-6463899D01*
X18908633Y-6548390D01*
X18889914Y-6559197D01*
X18756420Y-6621446D01*
X18736110Y-6628839D01*
X18593830Y-6666963D01*
X18572544Y-6670716D01*
X18460205Y-6680545D01*
X18417694Y-6684264D01*
X18412294Y-6684500D01*
X9364062Y-6684500D01*
X9297023Y-6664815D01*
X9271466Y-6635321D01*
X9260250Y-6653240D01*
X9197044Y-6683019D01*
X9177938Y-6684500D01*
X-632294Y-6684500D01*
X-637695Y-6684264D01*
X-685385Y-6680091D01*
X-792545Y-6670716D01*
X-813831Y-6666963D01*
X-956111Y-6628839D01*
X-976421Y-6621446D01*
X-1109915Y-6559197D01*
X-1128634Y-6548390D01*
X-1249300Y-6463899D01*
X-1265858Y-6450005D01*
X-1370006Y-6345857D01*
X-1383900Y-6329299D01*
X-1468391Y-6208633D01*
X-1479198Y-6189914D01*
X-1541447Y-6056420D01*
X-1548840Y-6036110D01*
X-1558848Y-5998760D01*
X-1570660Y-5954678D01*
X-1100500Y-5954678D01*
X-1085968Y-6027735D01*
X-1085967Y-6027739D01*
X-1073372Y-6046589D01*
X-1030601Y-6110601D01*
X-979359Y-6144839D01*
X-947740Y-6165966D01*
X-947736Y-6165967D01*
X-874679Y-6180499D01*
X-874676Y-6180500D01*
X-874674Y-6180500D01*
X874676Y-6180500D01*
X874677Y-6180499D01*
X947740Y-6165966D01*
X1030601Y-6110601D01*
X1085966Y-6027740D01*
X1100500Y-5954674D01*
X1100500Y-5842001D01*
X8665318Y-5842001D01*
X8685955Y-5998760D01*
X8685956Y-5998762D01*
X8735389Y-6118105D01*
X8746464Y-6144841D01*
X8842718Y-6270282D01*
X8968159Y-6366536D01*
X9114238Y-6427044D01*
X9194123Y-6437561D01*
X9258020Y-6465827D01*
X9268939Y-6482382D01*
X9270349Y-6479297D01*
X9329127Y-6441523D01*
X9347877Y-6437561D01*
X9427762Y-6427044D01*
X9573841Y-6366536D01*
X9699282Y-6270282D01*
X9795536Y-6144841D01*
X9856044Y-5998762D01*
X9876682Y-5842000D01*
X9856044Y-5685238D01*
X9795536Y-5539159D01*
X9699282Y-5413718D01*
X9590178Y-5330000D01*
X16449364Y-5330000D01*
X16506567Y-5543486D01*
X16506570Y-5543492D01*
X16606399Y-5757578D01*
X16741894Y-5951082D01*
X16908917Y-6118105D01*
X17102421Y-6253600D01*
X17316507Y-6353429D01*
X17316516Y-6353433D01*
X17530000Y-6410634D01*
X17530000Y-5515501D01*
X17637685Y-5564680D01*
X17744237Y-5580000D01*
X17815763Y-5580000D01*
X17922315Y-5564680D01*
X18030000Y-5515501D01*
X18030000Y-6410633D01*
X18243483Y-6353433D01*
X18243492Y-6353429D01*
X18457578Y-6253600D01*
X18651082Y-6118105D01*
X18818105Y-5951082D01*
X18953600Y-5757578D01*
X19053429Y-5543492D01*
X19053432Y-5543486D01*
X19110636Y-5330000D01*
X18213686Y-5330000D01*
X18239493Y-5289844D01*
X18280000Y-5151889D01*
X18280000Y-5008111D01*
X18239493Y-4870156D01*
X18213686Y-4830000D01*
X19110636Y-4830000D01*
X19110635Y-4829999D01*
X19053432Y-4616513D01*
X19053429Y-4616507D01*
X18953600Y-4402422D01*
X18953599Y-4402420D01*
X18818113Y-4208926D01*
X18818108Y-4208920D01*
X18651082Y-4041894D01*
X18457578Y-3906399D01*
X18243492Y-3806570D01*
X18243477Y-3806564D01*
X18204414Y-3796097D01*
X18144754Y-3759732D01*
X18114226Y-3696885D01*
X18122521Y-3627509D01*
X18167007Y-3573632D01*
X18191710Y-3560698D01*
X18272637Y-3529348D01*
X18446041Y-3421981D01*
X18596764Y-3284579D01*
X18719673Y-3121821D01*
X18810582Y-2939250D01*
X18866397Y-2743083D01*
X18885215Y-2540000D01*
X18866397Y-2336917D01*
X18810582Y-2140750D01*
X18719673Y-1958179D01*
X18596764Y-1795421D01*
X18596762Y-1795418D01*
X18446041Y-1658019D01*
X18446039Y-1658017D01*
X18272642Y-1550655D01*
X18272635Y-1550651D01*
X18177546Y-1513814D01*
X18082456Y-1476976D01*
X17881976Y-1439500D01*
X17678024Y-1439500D01*
X17477544Y-1476976D01*
X17477541Y-1476976D01*
X17477541Y-1476977D01*
X17287364Y-1550651D01*
X17287357Y-1550655D01*
X17113960Y-1658017D01*
X17113958Y-1658019D01*
X16963237Y-1795418D01*
X16840327Y-1958178D01*
X16749422Y-2140739D01*
X16749417Y-2140752D01*
X16693602Y-2336917D01*
X16674785Y-2539999D01*
X16674785Y-2540000D01*
X16693602Y-2743082D01*
X16749417Y-2939247D01*
X16749422Y-2939260D01*
X16840327Y-3121821D01*
X16963237Y-3284581D01*
X17113958Y-3421980D01*
X17113960Y-3421982D01*
X17213141Y-3483392D01*
X17287363Y-3529348D01*
X17368283Y-3560696D01*
X17423685Y-3603269D01*
X17447276Y-3669035D01*
X17431565Y-3737116D01*
X17381542Y-3785895D01*
X17355586Y-3796097D01*
X17316519Y-3806565D01*
X17316507Y-3806570D01*
X17102422Y-3906399D01*
X17102420Y-3906400D01*
X16908926Y-4041886D01*
X16908920Y-4041891D01*
X16741891Y-4208920D01*
X16741886Y-4208926D01*
X16606400Y-4402420D01*
X16606399Y-4402422D01*
X16506570Y-4616507D01*
X16506567Y-4616513D01*
X16449364Y-4829999D01*
X16449364Y-4830000D01*
X17346314Y-4830000D01*
X17320507Y-4870156D01*
X17280000Y-5008111D01*
X17280000Y-5151889D01*
X17320507Y-5289844D01*
X17346314Y-5330000D01*
X16449364Y-5330000D01*
X9590178Y-5330000D01*
X9573841Y-5317464D01*
X9427762Y-5256956D01*
X9427760Y-5256955D01*
X9271001Y-5236318D01*
X9270999Y-5236318D01*
X9114239Y-5256955D01*
X9114237Y-5256956D01*
X8968160Y-5317463D01*
X8842718Y-5413718D01*
X8746463Y-5539160D01*
X8685956Y-5685237D01*
X8685955Y-5685239D01*
X8665318Y-5841998D01*
X8665318Y-5842001D01*
X1100500Y-5842001D01*
X1100500Y-4318001D01*
X6760318Y-4318001D01*
X6780955Y-4474760D01*
X6780956Y-4474762D01*
X6841464Y-4620841D01*
X6937718Y-4746282D01*
X7063159Y-4842536D01*
X7209238Y-4903044D01*
X7287619Y-4913363D01*
X7365999Y-4923682D01*
X7366000Y-4923682D01*
X7366001Y-4923682D01*
X7418254Y-4916802D01*
X7522762Y-4903044D01*
X7668841Y-4842536D01*
X7794282Y-4746282D01*
X7890536Y-4620841D01*
X7951044Y-4474762D01*
X7971682Y-4318000D01*
X7964412Y-4262782D01*
X7951044Y-4161239D01*
X7951044Y-4161238D01*
X7890536Y-4015159D01*
X7794282Y-3889718D01*
X7722322Y-3834501D01*
X13745318Y-3834501D01*
X13765955Y-3991260D01*
X13765956Y-3991262D01*
X13826464Y-4137341D01*
X13922718Y-4262782D01*
X14048159Y-4359036D01*
X14194238Y-4419544D01*
X14272619Y-4429863D01*
X14350999Y-4440182D01*
X14351000Y-4440182D01*
X14351001Y-4440182D01*
X14403254Y-4433302D01*
X14507762Y-4419544D01*
X14653841Y-4359036D01*
X14779282Y-4262782D01*
X14875536Y-4137341D01*
X14936044Y-3991262D01*
X14956682Y-3834500D01*
X14951279Y-3793463D01*
X14942923Y-3729992D01*
X14936044Y-3677738D01*
X14875536Y-3531659D01*
X14779282Y-3406218D01*
X14653841Y-3309964D01*
X14592556Y-3284579D01*
X14507762Y-3249456D01*
X14507760Y-3249455D01*
X14351001Y-3228818D01*
X14350999Y-3228818D01*
X14194239Y-3249455D01*
X14194237Y-3249456D01*
X14048160Y-3309963D01*
X13922718Y-3406218D01*
X13826463Y-3531660D01*
X13765956Y-3677737D01*
X13765955Y-3677739D01*
X13745318Y-3834498D01*
X13745318Y-3834501D01*
X7722322Y-3834501D01*
X7668841Y-3793464D01*
X7522762Y-3732956D01*
X7522760Y-3732955D01*
X7366001Y-3712318D01*
X7365999Y-3712318D01*
X7209239Y-3732955D01*
X7209237Y-3732956D01*
X7063160Y-3793463D01*
X6937718Y-3889718D01*
X6841463Y-4015160D01*
X6780956Y-4161237D01*
X6780955Y-4161239D01*
X6760318Y-4317998D01*
X6760318Y-4318001D01*
X1100500Y-4318001D01*
X1100500Y-4205326D01*
X1100500Y-4205323D01*
X1100499Y-4205321D01*
X1085967Y-4132264D01*
X1085966Y-4132260D01*
X1030601Y-4049399D01*
X947740Y-3994034D01*
X947739Y-3994033D01*
X947735Y-3994032D01*
X874677Y-3979500D01*
X874674Y-3979500D01*
X-874674Y-3979500D01*
X-874677Y-3979500D01*
X-947736Y-3994032D01*
X-947740Y-3994033D01*
X-1030601Y-4049399D01*
X-1085967Y-4132260D01*
X-1085968Y-4132264D01*
X-1100500Y-4205321D01*
X-1100500Y-5954678D01*
X-1570660Y-5954678D01*
X-1586966Y-5893823D01*
X-1590717Y-5872543D01*
X-1604264Y-5717699D01*
X-1604500Y-5712293D01*
X-1604500Y-2540000D01*
X-1105215Y-2540000D01*
X-1086398Y-2743082D01*
X-1030583Y-2939247D01*
X-1030578Y-2939260D01*
X-939673Y-3121821D01*
X-816763Y-3284581D01*
X-666042Y-3421980D01*
X-666040Y-3421982D01*
X-566859Y-3483392D01*
X-492637Y-3529348D01*
X-302456Y-3603024D01*
X-101976Y-3640500D01*
X-101974Y-3640500D01*
X101974Y-3640500D01*
X101976Y-3640500D01*
X302456Y-3603024D01*
X492637Y-3529348D01*
X666041Y-3421981D01*
X816764Y-3284579D01*
X891962Y-3185001D01*
X10062318Y-3185001D01*
X10082955Y-3341760D01*
X10082956Y-3341762D01*
X10143464Y-3487841D01*
X10239718Y-3613282D01*
X10365159Y-3709536D01*
X10511238Y-3770044D01*
X10589619Y-3780363D01*
X10667999Y-3790682D01*
X10668000Y-3790682D01*
X10668001Y-3790682D01*
X10720254Y-3783802D01*
X10824762Y-3770044D01*
X10970841Y-3709536D01*
X11096282Y-3613282D01*
X11192536Y-3487841D01*
X11253044Y-3341762D01*
X11273682Y-3185000D01*
X11253044Y-3028238D01*
X11192536Y-2882159D01*
X11096282Y-2756718D01*
X10970841Y-2660464D01*
X10824762Y-2599956D01*
X10824760Y-2599955D01*
X10668001Y-2579318D01*
X10667999Y-2579318D01*
X10511239Y-2599955D01*
X10511237Y-2599956D01*
X10365160Y-2660463D01*
X10239718Y-2756718D01*
X10143463Y-2882160D01*
X10082956Y-3028237D01*
X10082955Y-3028239D01*
X10062318Y-3184998D01*
X10062318Y-3185001D01*
X891962Y-3185001D01*
X939673Y-3121821D01*
X1030582Y-2939250D01*
X1086397Y-2743083D01*
X1105215Y-2540000D01*
X1086397Y-2336917D01*
X1030582Y-2140750D01*
X939673Y-1958179D01*
X816764Y-1795421D01*
X816762Y-1795418D01*
X666041Y-1658019D01*
X666039Y-1658017D01*
X492642Y-1550655D01*
X492635Y-1550651D01*
X397546Y-1513814D01*
X302456Y-1476976D01*
X101976Y-1439500D01*
X-101976Y-1439500D01*
X-302456Y-1476976D01*
X-302459Y-1476976D01*
X-302459Y-1476977D01*
X-492636Y-1550651D01*
X-492643Y-1550655D01*
X-666040Y-1658017D01*
X-666042Y-1658019D01*
X-816763Y-1795418D01*
X-939673Y-1958178D01*
X-1030578Y-2140739D01*
X-1030583Y-2140752D01*
X-1086398Y-2336917D01*
X-1105215Y-2539999D01*
X-1105215Y-2540000D01*
X-1604500Y-2540000D01*
X-1604500Y0D01*
X-1105215Y0D01*
X-1086398Y-203082D01*
X-1030583Y-399247D01*
X-1030578Y-399260D01*
X-939673Y-581821D01*
X-816763Y-744581D01*
X-666042Y-881980D01*
X-666040Y-881982D01*
X-566859Y-943392D01*
X-492637Y-989348D01*
X-302456Y-1063024D01*
X-101976Y-1100500D01*
X-101974Y-1100500D01*
X101974Y-1100500D01*
X101976Y-1100500D01*
X302456Y-1063024D01*
X492637Y-989348D01*
X666041Y-881981D01*
X816764Y-744579D01*
X939673Y-581821D01*
X1030582Y-399250D01*
X1086397Y-203083D01*
X1104288Y-10001D01*
X10443318Y-10001D01*
X10463955Y-166760D01*
X10463956Y-166762D01*
X10524464Y-312841D01*
X10620718Y-438282D01*
X10746159Y-534536D01*
X10892238Y-595044D01*
X10970619Y-605363D01*
X11048999Y-615682D01*
X11049000Y-615682D01*
X11049001Y-615682D01*
X11101254Y-608802D01*
X11205762Y-595044D01*
X11351841Y-534536D01*
X11477282Y-438282D01*
X11573536Y-312841D01*
X11634044Y-166762D01*
X11654682Y-10000D01*
X11653365Y0D01*
X16674785Y0D01*
X16693602Y-203082D01*
X16749417Y-399247D01*
X16749422Y-399260D01*
X16840327Y-581821D01*
X16963237Y-744581D01*
X17113958Y-881980D01*
X17113960Y-881982D01*
X17213141Y-943392D01*
X17287363Y-989348D01*
X17477544Y-1063024D01*
X17678024Y-1100500D01*
X17678026Y-1100500D01*
X17881974Y-1100500D01*
X17881976Y-1100500D01*
X18082456Y-1063024D01*
X18272637Y-989348D01*
X18446041Y-881981D01*
X18596764Y-744579D01*
X18719673Y-581821D01*
X18810582Y-399250D01*
X18866397Y-203083D01*
X18885215Y0D01*
X18866397Y203083D01*
X18810582Y399250D01*
X18801105Y418282D01*
X18753176Y514537D01*
X18719673Y581821D01*
X18596764Y744579D01*
X18596762Y744582D01*
X18446041Y881981D01*
X18446039Y881983D01*
X18272642Y989345D01*
X18272635Y989349D01*
X18177546Y1026186D01*
X18082456Y1063024D01*
X17881976Y1100500D01*
X17678024Y1100500D01*
X17477544Y1063024D01*
X17477541Y1063024D01*
X17477541Y1063023D01*
X17287364Y989349D01*
X17287357Y989345D01*
X17113960Y881983D01*
X17113958Y881981D01*
X16963237Y744582D01*
X16840327Y581822D01*
X16749422Y399261D01*
X16749417Y399248D01*
X16693602Y203083D01*
X16674785Y1D01*
X16674785Y0D01*
X11653365Y0D01*
X11634044Y146761D01*
X11634044Y146762D01*
X11573536Y292841D01*
X11477282Y418282D01*
X11351841Y514536D01*
X11205762Y575044D01*
X11205760Y575045D01*
X11049001Y595682D01*
X11048999Y595682D01*
X10892239Y575045D01*
X10892237Y575044D01*
X10746160Y514537D01*
X10620718Y418282D01*
X10524463Y292840D01*
X10463956Y146763D01*
X10463955Y146761D01*
X10443318Y-9998D01*
X10443318Y-10001D01*
X1104288Y-10001D01*
X1105215Y0D01*
X1086397Y203083D01*
X1030582Y399250D01*
X1021105Y418282D01*
X973176Y514537D01*
X939673Y581821D01*
X816764Y744579D01*
X816762Y744582D01*
X666041Y881981D01*
X666039Y881983D01*
X492642Y989345D01*
X492635Y989349D01*
X397546Y1026186D01*
X302456Y1063024D01*
X101976Y1100500D01*
X-101976Y1100500D01*
X-302456Y1063024D01*
X-302459Y1063024D01*
X-302459Y1063023D01*
X-492636Y989349D01*
X-492643Y989345D01*
X-666040Y881983D01*
X-666042Y881981D01*
X-816763Y744582D01*
X-939673Y581822D01*
X-1030578Y399261D01*
X-1030583Y399248D01*
X-1086398Y203083D01*
X-1105215Y1D01*
X-1105215Y0D01*
X-1604500Y0D01*
X-1604500Y2540000D01*
X-1105215Y2540000D01*
X-1086398Y2336918D01*
X-1030583Y2140753D01*
X-1030578Y2140740D01*
X-939673Y1958179D01*
X-816763Y1795419D01*
X-666042Y1658020D01*
X-666040Y1658018D01*
X-566859Y1596608D01*
X-492637Y1550652D01*
X-302456Y1476976D01*
X-101976Y1439500D01*
X-101974Y1439500D01*
X101974Y1439500D01*
X101976Y1439500D01*
X302456Y1476976D01*
X492637Y1550652D01*
X666041Y1658019D01*
X816764Y1795421D01*
X939673Y1958179D01*
X1030582Y2140750D01*
X1086397Y2336917D01*
X1105215Y2540000D01*
X1086397Y2743083D01*
X1030582Y2939250D01*
X939673Y3121821D01*
X877038Y3204763D01*
X816762Y3284582D01*
X666041Y3421981D01*
X666039Y3421983D01*
X654708Y3428999D01*
X8538318Y3428999D01*
X8558955Y3272240D01*
X8558956Y3272238D01*
X8586905Y3204762D01*
X8619464Y3126159D01*
X8715718Y3000718D01*
X8841159Y2904464D01*
X8987238Y2843956D01*
X9065619Y2833637D01*
X9143999Y2823318D01*
X9144000Y2823318D01*
X9144001Y2823318D01*
X9196254Y2830198D01*
X9300762Y2843956D01*
X9446841Y2904464D01*
X9572282Y3000718D01*
X9608562Y3047999D01*
X11205318Y3047999D01*
X11225955Y2891240D01*
X11225956Y2891238D01*
X11286464Y2745159D01*
X11382718Y2619718D01*
X11508159Y2523464D01*
X11654238Y2462956D01*
X11732619Y2452637D01*
X11810999Y2442318D01*
X11811000Y2442318D01*
X11811001Y2442318D01*
X11863254Y2449198D01*
X11967762Y2462956D01*
X12113841Y2523464D01*
X12135391Y2540000D01*
X16674785Y2540000D01*
X16693602Y2336918D01*
X16749417Y2140753D01*
X16749422Y2140740D01*
X16840327Y1958179D01*
X16963237Y1795419D01*
X17113958Y1658020D01*
X17113960Y1658018D01*
X17213141Y1596608D01*
X17287363Y1550652D01*
X17477544Y1476976D01*
X17678024Y1439500D01*
X17678026Y1439500D01*
X17881974Y1439500D01*
X17881976Y1439500D01*
X18082456Y1476976D01*
X18272637Y1550652D01*
X18446041Y1658019D01*
X18596764Y1795421D01*
X18719673Y1958179D01*
X18810582Y2140750D01*
X18866397Y2336917D01*
X18885215Y2540000D01*
X18866397Y2743083D01*
X18810582Y2939250D01*
X18719673Y3121821D01*
X18657038Y3204763D01*
X18596762Y3284582D01*
X18446041Y3421981D01*
X18446039Y3421983D01*
X18272642Y3529345D01*
X18272635Y3529349D01*
X18161155Y3572536D01*
X18082456Y3603024D01*
X17881976Y3640500D01*
X17678024Y3640500D01*
X17477544Y3603024D01*
X17477541Y3603024D01*
X17477541Y3603023D01*
X17287364Y3529349D01*
X17287357Y3529345D01*
X17113960Y3421983D01*
X17113958Y3421981D01*
X16963237Y3284582D01*
X16840327Y3121822D01*
X16749422Y2939261D01*
X16749417Y2939248D01*
X16693602Y2743083D01*
X16674785Y2540001D01*
X16674785Y2540000D01*
X12135391Y2540000D01*
X12239282Y2619718D01*
X12335536Y2745159D01*
X12396044Y2891238D01*
X12416682Y3048000D01*
X12396044Y3204762D01*
X12335536Y3350841D01*
X12239282Y3476282D01*
X12113841Y3572536D01*
X12081908Y3585763D01*
X11967762Y3633044D01*
X11967760Y3633045D01*
X11811001Y3653682D01*
X11810999Y3653682D01*
X11654239Y3633045D01*
X11654237Y3633044D01*
X11508160Y3572537D01*
X11382718Y3476282D01*
X11286463Y3350840D01*
X11225956Y3204763D01*
X11225955Y3204761D01*
X11205318Y3048002D01*
X11205318Y3047999D01*
X9608562Y3047999D01*
X9668536Y3126159D01*
X9729044Y3272238D01*
X9749682Y3429000D01*
X9729044Y3585762D01*
X9668536Y3731841D01*
X9572282Y3857282D01*
X9446841Y3953536D01*
X9384158Y3979500D01*
X9300762Y4014044D01*
X9300760Y4014045D01*
X9144001Y4034682D01*
X9143999Y4034682D01*
X8987239Y4014045D01*
X8987237Y4014044D01*
X8841160Y3953537D01*
X8715718Y3857282D01*
X8619463Y3731840D01*
X8558956Y3585763D01*
X8558955Y3585761D01*
X8538318Y3429002D01*
X8538318Y3428999D01*
X654708Y3428999D01*
X492642Y3529345D01*
X492635Y3529349D01*
X381155Y3572536D01*
X302456Y3603024D01*
X101976Y3640500D01*
X-101976Y3640500D01*
X-302456Y3603024D01*
X-302459Y3603024D01*
X-302459Y3603023D01*
X-492636Y3529349D01*
X-492643Y3529345D01*
X-666040Y3421983D01*
X-666042Y3421981D01*
X-816763Y3284582D01*
X-939673Y3121822D01*
X-1030578Y2939261D01*
X-1030583Y2939248D01*
X-1086398Y2743083D01*
X-1105215Y2540001D01*
X-1105215Y2540000D01*
X-1604500Y2540000D01*
X-1604500Y5080000D01*
X-1105215Y5080000D01*
X-1086398Y4876918D01*
X-1030583Y4680753D01*
X-1030578Y4680740D01*
X-939673Y4498179D01*
X-816763Y4335419D01*
X-666042Y4198020D01*
X-666040Y4198018D01*
X-566859Y4136608D01*
X-492637Y4090652D01*
X-302456Y4016976D01*
X-101976Y3979500D01*
X-101974Y3979500D01*
X101974Y3979500D01*
X101976Y3979500D01*
X302456Y4016976D01*
X492637Y4090652D01*
X666041Y4198019D01*
X674052Y4205322D01*
X16679500Y4205322D01*
X16694032Y4132265D01*
X16694033Y4132261D01*
X16694034Y4132260D01*
X16749399Y4049399D01*
X16832260Y3994034D01*
X16832264Y3994033D01*
X16905321Y3979501D01*
X16905324Y3979500D01*
X16905326Y3979500D01*
X18654676Y3979500D01*
X18654677Y3979501D01*
X18727740Y3994034D01*
X18810601Y4049399D01*
X18865966Y4132260D01*
X18880500Y4205326D01*
X18880500Y5954674D01*
X18880500Y5954677D01*
X18880499Y5954679D01*
X18865967Y6027736D01*
X18865966Y6027740D01*
X18860373Y6036111D01*
X18810601Y6110601D01*
X18727740Y6165966D01*
X18727739Y6165967D01*
X18727735Y6165968D01*
X18654677Y6180500D01*
X18654674Y6180500D01*
X16905326Y6180500D01*
X16905323Y6180500D01*
X16832264Y6165968D01*
X16832260Y6165967D01*
X16749399Y6110601D01*
X16694033Y6027740D01*
X16694032Y6027736D01*
X16679500Y5954679D01*
X16679500Y4205322D01*
X674052Y4205322D01*
X816764Y4335421D01*
X939673Y4498179D01*
X1030582Y4680750D01*
X1086397Y4876917D01*
X1105215Y5079999D01*
X8538318Y5079999D01*
X8558955Y4923240D01*
X8558956Y4923238D01*
X8619464Y4777159D01*
X8715718Y4651718D01*
X8841159Y4555464D01*
X8987238Y4494956D01*
X9065619Y4484637D01*
X9143999Y4474318D01*
X9144000Y4474318D01*
X9144001Y4474318D01*
X9196254Y4481198D01*
X9300762Y4494956D01*
X9446841Y4555464D01*
X9572282Y4651718D01*
X9668536Y4777159D01*
X9729044Y4923238D01*
X9749682Y5080000D01*
X9729044Y5236762D01*
X9668536Y5382841D01*
X9572282Y5508282D01*
X9446841Y5604536D01*
X9300762Y5665044D01*
X9300760Y5665045D01*
X9144001Y5685682D01*
X9143999Y5685682D01*
X8987239Y5665045D01*
X8987237Y5665044D01*
X8841160Y5604537D01*
X8715718Y5508282D01*
X8619463Y5382840D01*
X8558956Y5236763D01*
X8558955Y5236761D01*
X8538318Y5080002D01*
X8538318Y5079999D01*
X1105215Y5079999D01*
X1105215Y5080000D01*
X1086397Y5283083D01*
X1030582Y5479250D01*
X939673Y5661821D01*
X816764Y5824579D01*
X816762Y5824582D01*
X666041Y5961981D01*
X666039Y5961983D01*
X492642Y6069345D01*
X492635Y6069349D01*
X386150Y6110601D01*
X302456Y6143024D01*
X101976Y6180500D01*
X-101976Y6180500D01*
X-302456Y6143024D01*
X-302459Y6143024D01*
X-302459Y6143023D01*
X-492636Y6069349D01*
X-492643Y6069345D01*
X-666040Y5961983D01*
X-666042Y5961981D01*
X-816763Y5824582D01*
X-939673Y5661822D01*
X-1030578Y5479261D01*
X-1030583Y5479248D01*
X-1086398Y5283083D01*
X-1105215Y5080001D01*
X-1105215Y5080000D01*
X-1604500Y5080000D01*
X-1604500Y5712294D01*
X-1604264Y5717700D01*
X-1602064Y5742844D01*
X-1590717Y5872549D01*
X-1586966Y5893822D01*
X-1548839Y6036116D01*
X-1541447Y6056421D01*
X-1479198Y6189915D01*
X-1468391Y6208634D01*
X-1383900Y6329300D01*
X-1370012Y6345852D01*
X-1265852Y6450012D01*
X-1249300Y6463900D01*
X-1128634Y6548391D01*
X-1109915Y6559198D01*
X-976421Y6621447D01*
X-956116Y6628839D01*
X-813822Y6666966D01*
X-792549Y6670717D01*
X-637695Y6684265D01*
X-632294Y6684500D01*
X-587405Y6684500D01*
X18367405Y6684500D01*
X18412294Y6684500D01*
X18417694Y6684265D01*
G37*
%TD.AperFunction*%
%TD*%
M02*
