%TF.GenerationSoftware,KiCad,Pcbnew,7.0.9*%
%TF.CreationDate,2024-01-07T19:57:38+00:00*%
%TF.ProjectId,INA381 Breakout,494e4133-3831-4204-9272-65616b6f7574,V24.01.0.1*%
%TF.SameCoordinates,PX8841978PY54c5a90*%
%TF.FileFunction,Copper,L3,Inr*%
%TF.FilePolarity,Positive*%
%FSLAX46Y46*%
G04 Gerber Fmt 4.6, Leading zero omitted, Abs format (unit mm)*
G04 Created by KiCad (PCBNEW 7.0.9) date 2024-01-07 19:57:38*
%MOMM*%
%LPD*%
G01*
G04 APERTURE LIST*
%TA.AperFunction,ComponentPad*%
%ADD10R,1.700000X1.700000*%
%TD*%
%TA.AperFunction,ComponentPad*%
%ADD11O,1.700000X1.700000*%
%TD*%
%TA.AperFunction,ViaPad*%
%ADD12C,0.700000*%
%TD*%
G04 APERTURE END LIST*
D10*
%TO.N,VDD*%
%TO.C,J1*%
X17780000Y5080000D03*
D11*
%TO.N,/~{ALERT}*%
X17780000Y2540000D03*
%TO.N,Net-(J1-Pin_3)*%
X17780000Y0D03*
%TO.N,/CMPREF*%
X17780000Y-2540000D03*
%TO.N,GND*%
X17780000Y-5080000D03*
%TD*%
D10*
%TO.N,/RES+*%
%TO.C,J2*%
X0Y-5080000D03*
D11*
X0Y-2540000D03*
%TO.N,unconnected-(J2-Pin_3-Pad3)*%
X0Y0D03*
%TO.N,/RES-*%
X0Y2540000D03*
X0Y5080000D03*
%TD*%
D12*
%TO.N,GND*%
X15875000Y-4826000D03*
X5474000Y-5865000D03*
X13208000Y5700000D03*
X14351000Y-1915000D03*
X14351000Y-5725000D03*
X16002000Y4318000D03*
X9981750Y-837750D03*
X5461000Y5845000D03*
X7366000Y-5842000D03*
%TO.N,VDD*%
X11811000Y3048000D03*
X11049000Y-10000D03*
X14351000Y-3834500D03*
X9271000Y-5842000D03*
X7366000Y-4318000D03*
%TO.N,/~{ALERT}*%
X10668000Y-3185000D03*
%TO.N,/CMPIN*%
X9144000Y5080000D03*
X9144000Y3429000D03*
%TD*%
%TA.AperFunction,Conductor*%
%TO.N,VDD*%
G36*
X18416358Y6684382D02*
G01*
X18577910Y6670248D01*
X18588630Y6668357D01*
X18741306Y6627448D01*
X18751543Y6623722D01*
X18894792Y6556924D01*
X18904226Y6551477D01*
X19033705Y6460815D01*
X19042051Y6453812D01*
X19153811Y6342052D01*
X19160814Y6333706D01*
X19251476Y6204227D01*
X19256923Y6194793D01*
X19323721Y6051544D01*
X19327447Y6041306D01*
X19368355Y5888635D01*
X19370247Y5877906D01*
X19384381Y5716363D01*
X19384500Y5713638D01*
X19384500Y-5713637D01*
X19384381Y-5716362D01*
X19370247Y-5877905D01*
X19368355Y-5888634D01*
X19327447Y-6041305D01*
X19323721Y-6051543D01*
X19256923Y-6194792D01*
X19251476Y-6204226D01*
X19160814Y-6333705D01*
X19153811Y-6342051D01*
X19042051Y-6453811D01*
X19033705Y-6460814D01*
X18904226Y-6551476D01*
X18894792Y-6556923D01*
X18751543Y-6623721D01*
X18741305Y-6627447D01*
X18588634Y-6668355D01*
X18577905Y-6670247D01*
X18452625Y-6681208D01*
X18416358Y-6684381D01*
X18413637Y-6684500D01*
X-633637Y-6684500D01*
X-636359Y-6684381D01*
X-677685Y-6680765D01*
X-797906Y-6670247D01*
X-808635Y-6668355D01*
X-961306Y-6627447D01*
X-971544Y-6623721D01*
X-1114793Y-6556923D01*
X-1124227Y-6551476D01*
X-1253706Y-6460814D01*
X-1262052Y-6453811D01*
X-1373812Y-6342051D01*
X-1380815Y-6333705D01*
X-1471477Y-6204226D01*
X-1476924Y-6194792D01*
X-1543722Y-6051543D01*
X-1547448Y-6041305D01*
X-1570661Y-5954674D01*
X-1100500Y-5954674D01*
X-1085967Y-6027739D01*
X-1085966Y-6027741D01*
X-1073372Y-6046589D01*
X-1030601Y-6110601D01*
X-979361Y-6144838D01*
X-947742Y-6165965D01*
X-947740Y-6165966D01*
X-874674Y-6180500D01*
X874674Y-6180500D01*
X947740Y-6165966D01*
X1030601Y-6110601D01*
X1085966Y-6027740D01*
X1100500Y-5954674D01*
X1100500Y-5865001D01*
X4868318Y-5865001D01*
X4888954Y-6021755D01*
X4888957Y-6021765D01*
X4949462Y-6167838D01*
X4949464Y-6167841D01*
X5045717Y-6293282D01*
X5098398Y-6333705D01*
X5171159Y-6389536D01*
X5317238Y-6450044D01*
X5317242Y-6450044D01*
X5317244Y-6450045D01*
X5473998Y-6470682D01*
X5474000Y-6470682D01*
X5474002Y-6470682D01*
X5630755Y-6450045D01*
X5630755Y-6450044D01*
X5630762Y-6450044D01*
X5776841Y-6389536D01*
X5902282Y-6293282D01*
X5998536Y-6167841D01*
X6059044Y-6021762D01*
X6079682Y-5865000D01*
X6076654Y-5842001D01*
X6760318Y-5842001D01*
X6780954Y-5998755D01*
X6780957Y-5998765D01*
X6841462Y-6144838D01*
X6841464Y-6144841D01*
X6937717Y-6270282D01*
X7031249Y-6342051D01*
X7063159Y-6366536D01*
X7209238Y-6427044D01*
X7209242Y-6427044D01*
X7209244Y-6427045D01*
X7365998Y-6447682D01*
X7366000Y-6447682D01*
X7366002Y-6447682D01*
X7522755Y-6427045D01*
X7522755Y-6427044D01*
X7522762Y-6427044D01*
X7668841Y-6366536D01*
X7794282Y-6270282D01*
X7890536Y-6144841D01*
X7951044Y-5998762D01*
X7971682Y-5842000D01*
X7969388Y-5824579D01*
X7956279Y-5725001D01*
X13745318Y-5725001D01*
X13765954Y-5881755D01*
X13765957Y-5881765D01*
X13826462Y-6027838D01*
X13826464Y-6027841D01*
X13922717Y-6153282D01*
X14018971Y-6227139D01*
X14048159Y-6249536D01*
X14194238Y-6310044D01*
X14194242Y-6310044D01*
X14194244Y-6310045D01*
X14350998Y-6330682D01*
X14351000Y-6330682D01*
X14351002Y-6330682D01*
X14507755Y-6310045D01*
X14507755Y-6310044D01*
X14507762Y-6310044D01*
X14653841Y-6249536D01*
X14779282Y-6153282D01*
X14875536Y-6027841D01*
X14936044Y-5881762D01*
X14956682Y-5725000D01*
X14955365Y-5715000D01*
X14936045Y-5568244D01*
X14936044Y-5568242D01*
X14936044Y-5568238D01*
X14875536Y-5422159D01*
X14820577Y-5350535D01*
X14779282Y-5296717D01*
X14653841Y-5200464D01*
X14653838Y-5200462D01*
X14507765Y-5139957D01*
X14507755Y-5139954D01*
X14351002Y-5119318D01*
X14350998Y-5119318D01*
X14194244Y-5139954D01*
X14194234Y-5139957D01*
X14048161Y-5200462D01*
X14048158Y-5200464D01*
X13922717Y-5296717D01*
X13826464Y-5422158D01*
X13826462Y-5422161D01*
X13765957Y-5568234D01*
X13765954Y-5568244D01*
X13745318Y-5724998D01*
X13745318Y-5725001D01*
X7956279Y-5725001D01*
X7951045Y-5685244D01*
X7951044Y-5685242D01*
X7951044Y-5685238D01*
X7890536Y-5539159D01*
X7868139Y-5509971D01*
X7794282Y-5413717D01*
X7668841Y-5317464D01*
X7668838Y-5317462D01*
X7522765Y-5256957D01*
X7522755Y-5256954D01*
X7366002Y-5236318D01*
X7365998Y-5236318D01*
X7209244Y-5256954D01*
X7209234Y-5256957D01*
X7063161Y-5317462D01*
X7063158Y-5317464D01*
X6937717Y-5413717D01*
X6841464Y-5539158D01*
X6841462Y-5539161D01*
X6780957Y-5685234D01*
X6780954Y-5685244D01*
X6760318Y-5841998D01*
X6760318Y-5842001D01*
X6076654Y-5842001D01*
X6061250Y-5724998D01*
X6059045Y-5708244D01*
X6059044Y-5708242D01*
X6059044Y-5708238D01*
X6018705Y-5610852D01*
X5998537Y-5562161D01*
X5998535Y-5562158D01*
X5980887Y-5539159D01*
X5934918Y-5479250D01*
X5902282Y-5436717D01*
X5776841Y-5340464D01*
X5776838Y-5340462D01*
X5630765Y-5279957D01*
X5630755Y-5279954D01*
X5474002Y-5259318D01*
X5473998Y-5259318D01*
X5317244Y-5279954D01*
X5317234Y-5279957D01*
X5171161Y-5340462D01*
X5171158Y-5340464D01*
X5045717Y-5436717D01*
X4949464Y-5562158D01*
X4949462Y-5562161D01*
X4888957Y-5708234D01*
X4888954Y-5708244D01*
X4868318Y-5864998D01*
X4868318Y-5865001D01*
X1100500Y-5865001D01*
X1100500Y-4826001D01*
X15269318Y-4826001D01*
X15289954Y-4982755D01*
X15289957Y-4982765D01*
X15350462Y-5128838D01*
X15350464Y-5128841D01*
X15446717Y-5254282D01*
X15542971Y-5328139D01*
X15572159Y-5350536D01*
X15718238Y-5411044D01*
X15718242Y-5411044D01*
X15718244Y-5411045D01*
X15874998Y-5431682D01*
X15875000Y-5431682D01*
X15875002Y-5431682D01*
X16031755Y-5411045D01*
X16031755Y-5411044D01*
X16031762Y-5411044D01*
X16177841Y-5350536D01*
X16303282Y-5254282D01*
X16399536Y-5128841D01*
X16419765Y-5080003D01*
X16674785Y-5080003D01*
X16693601Y-5283075D01*
X16693603Y-5283086D01*
X16737316Y-5436717D01*
X16749418Y-5479250D01*
X16840327Y-5661821D01*
X16840328Y-5661822D01*
X16840330Y-5661826D01*
X16963227Y-5824569D01*
X16963232Y-5824574D01*
X16963236Y-5824579D01*
X17027707Y-5883352D01*
X17113954Y-5961977D01*
X17113955Y-5961978D01*
X17113959Y-5961981D01*
X17287363Y-6069348D01*
X17477544Y-6143024D01*
X17678024Y-6180500D01*
X17678027Y-6180500D01*
X17881973Y-6180500D01*
X17881976Y-6180500D01*
X18082456Y-6143024D01*
X18272637Y-6069348D01*
X18446041Y-5961981D01*
X18596764Y-5824579D01*
X18671963Y-5725000D01*
X18719669Y-5661826D01*
X18719668Y-5661826D01*
X18719673Y-5661821D01*
X18810582Y-5479250D01*
X18866397Y-5283083D01*
X18869066Y-5254282D01*
X18885215Y-5080003D01*
X18885215Y-5079996D01*
X18866398Y-4876924D01*
X18866396Y-4876913D01*
X18851909Y-4825998D01*
X18810582Y-4680750D01*
X18719673Y-4498179D01*
X18719670Y-4498175D01*
X18719669Y-4498173D01*
X18596772Y-4335430D01*
X18596767Y-4335425D01*
X18596764Y-4335421D01*
X18470502Y-4220318D01*
X18446045Y-4198022D01*
X18446042Y-4198020D01*
X18446041Y-4198019D01*
X18272637Y-4090652D01*
X18272635Y-4090651D01*
X18217356Y-4069236D01*
X18082456Y-4016976D01*
X18082453Y-4016975D01*
X18082452Y-4016975D01*
X17881980Y-3979500D01*
X17881976Y-3979500D01*
X17678024Y-3979500D01*
X17678019Y-3979500D01*
X17477547Y-4016975D01*
X17287364Y-4090651D01*
X17113954Y-4198022D01*
X16963234Y-4335423D01*
X16963227Y-4335430D01*
X16840330Y-4498173D01*
X16840327Y-4498179D01*
X16749418Y-4680749D01*
X16693603Y-4876913D01*
X16693601Y-4876924D01*
X16674785Y-5079996D01*
X16674785Y-5080003D01*
X16419765Y-5080003D01*
X16460044Y-4982762D01*
X16480682Y-4826000D01*
X16461559Y-4680749D01*
X16460045Y-4669244D01*
X16460044Y-4669242D01*
X16460044Y-4669238D01*
X16399536Y-4523159D01*
X16377139Y-4493971D01*
X16303282Y-4397717D01*
X16177841Y-4301464D01*
X16177838Y-4301462D01*
X16031765Y-4240957D01*
X16031755Y-4240954D01*
X15875002Y-4220318D01*
X15874998Y-4220318D01*
X15718244Y-4240954D01*
X15718234Y-4240957D01*
X15572161Y-4301462D01*
X15572158Y-4301464D01*
X15446717Y-4397717D01*
X15350464Y-4523158D01*
X15350462Y-4523161D01*
X15289957Y-4669234D01*
X15289954Y-4669244D01*
X15269318Y-4825998D01*
X15269318Y-4826001D01*
X1100500Y-4826001D01*
X1100500Y-4205326D01*
X1085966Y-4132260D01*
X1030601Y-4049399D01*
X982074Y-4016975D01*
X947741Y-3994034D01*
X947739Y-3994033D01*
X874674Y-3979500D01*
X-874674Y-3979500D01*
X-947740Y-3994033D01*
X-947742Y-3994034D01*
X-1030601Y-4049399D01*
X-1085966Y-4132258D01*
X-1085967Y-4132260D01*
X-1100500Y-4205325D01*
X-1100500Y-5954674D01*
X-1570661Y-5954674D01*
X-1588357Y-5888630D01*
X-1590248Y-5877905D01*
X-1594914Y-5824576D01*
X-1604382Y-5716358D01*
X-1604500Y-5713637D01*
X-1604500Y-2540003D01*
X-1105215Y-2540003D01*
X-1086399Y-2743075D01*
X-1086397Y-2743086D01*
X-1030582Y-2939250D01*
X-939673Y-3121821D01*
X-939672Y-3121822D01*
X-939670Y-3121826D01*
X-816773Y-3284569D01*
X-816768Y-3284574D01*
X-816764Y-3284579D01*
X-714533Y-3377775D01*
X-666046Y-3421977D01*
X-666045Y-3421978D01*
X-666041Y-3421981D01*
X-492637Y-3529348D01*
X-302456Y-3603024D01*
X-101976Y-3640500D01*
X-101973Y-3640500D01*
X101973Y-3640500D01*
X101976Y-3640500D01*
X302456Y-3603024D01*
X492637Y-3529348D01*
X666041Y-3421981D01*
X816764Y-3284579D01*
X891962Y-3185001D01*
X10062318Y-3185001D01*
X10082954Y-3341755D01*
X10082957Y-3341765D01*
X10143462Y-3487838D01*
X10143464Y-3487841D01*
X10239717Y-3613282D01*
X10275189Y-3640500D01*
X10365159Y-3709536D01*
X10511238Y-3770044D01*
X10511242Y-3770044D01*
X10511244Y-3770045D01*
X10667998Y-3790682D01*
X10668000Y-3790682D01*
X10668002Y-3790682D01*
X10824755Y-3770045D01*
X10824755Y-3770044D01*
X10824762Y-3770044D01*
X10970841Y-3709536D01*
X11096282Y-3613282D01*
X11192536Y-3487841D01*
X11253044Y-3341762D01*
X11273682Y-3185000D01*
X11265364Y-3121821D01*
X11253045Y-3028244D01*
X11253044Y-3028242D01*
X11253044Y-3028238D01*
X11192536Y-2882159D01*
X11170139Y-2852971D01*
X11096282Y-2756717D01*
X10970841Y-2660464D01*
X10970838Y-2660462D01*
X10824765Y-2599957D01*
X10824755Y-2599954D01*
X10668002Y-2579318D01*
X10667998Y-2579318D01*
X10511244Y-2599954D01*
X10511234Y-2599957D01*
X10365161Y-2660462D01*
X10365158Y-2660464D01*
X10239717Y-2756717D01*
X10143464Y-2882158D01*
X10143462Y-2882161D01*
X10082957Y-3028234D01*
X10082954Y-3028244D01*
X10062318Y-3184998D01*
X10062318Y-3185001D01*
X891962Y-3185001D01*
X891963Y-3185000D01*
X939669Y-3121826D01*
X939668Y-3121826D01*
X939673Y-3121821D01*
X1030582Y-2939250D01*
X1086397Y-2743083D01*
X1094053Y-2660462D01*
X1105215Y-2540003D01*
X16674785Y-2540003D01*
X16693601Y-2743075D01*
X16693603Y-2743086D01*
X16749418Y-2939250D01*
X16840327Y-3121821D01*
X16840328Y-3121822D01*
X16840330Y-3121826D01*
X16963227Y-3284569D01*
X16963232Y-3284574D01*
X16963236Y-3284579D01*
X17065467Y-3377775D01*
X17113954Y-3421977D01*
X17113955Y-3421978D01*
X17113959Y-3421981D01*
X17287363Y-3529348D01*
X17477544Y-3603024D01*
X17678024Y-3640500D01*
X17678027Y-3640500D01*
X17881973Y-3640500D01*
X17881976Y-3640500D01*
X18082456Y-3603024D01*
X18272637Y-3529348D01*
X18446041Y-3421981D01*
X18596764Y-3284579D01*
X18671963Y-3185000D01*
X18719669Y-3121826D01*
X18719668Y-3121826D01*
X18719673Y-3121821D01*
X18810582Y-2939250D01*
X18866397Y-2743083D01*
X18874053Y-2660462D01*
X18885215Y-2540003D01*
X18885215Y-2539996D01*
X18866398Y-2336924D01*
X18866396Y-2336913D01*
X18857365Y-2305173D01*
X18810582Y-2140750D01*
X18719673Y-1958179D01*
X18719670Y-1958175D01*
X18719669Y-1958173D01*
X18596772Y-1795430D01*
X18596767Y-1795425D01*
X18596764Y-1795421D01*
X18502209Y-1709223D01*
X18446045Y-1658022D01*
X18446042Y-1658020D01*
X18446041Y-1658019D01*
X18272637Y-1550652D01*
X18272635Y-1550651D01*
X18217356Y-1529236D01*
X18082456Y-1476976D01*
X18082453Y-1476975D01*
X18082452Y-1476975D01*
X17881980Y-1439500D01*
X17881976Y-1439500D01*
X17678024Y-1439500D01*
X17678019Y-1439500D01*
X17477547Y-1476975D01*
X17477544Y-1476975D01*
X17477544Y-1476976D01*
X17452397Y-1486718D01*
X17287364Y-1550651D01*
X17113954Y-1658022D01*
X16963234Y-1795423D01*
X16963227Y-1795430D01*
X16840330Y-1958173D01*
X16840327Y-1958179D01*
X16749418Y-2140749D01*
X16693603Y-2336913D01*
X16693601Y-2336924D01*
X16674785Y-2539996D01*
X16674785Y-2540003D01*
X1105215Y-2540003D01*
X1105215Y-2539996D01*
X1086398Y-2336924D01*
X1086396Y-2336913D01*
X1077365Y-2305173D01*
X1030582Y-2140750D01*
X939673Y-1958179D01*
X939670Y-1958175D01*
X939669Y-1958173D01*
X907067Y-1915001D01*
X13745318Y-1915001D01*
X13765954Y-2071755D01*
X13765957Y-2071765D01*
X13826462Y-2217838D01*
X13826464Y-2217841D01*
X13922717Y-2343282D01*
X14018971Y-2417139D01*
X14048159Y-2439536D01*
X14194238Y-2500044D01*
X14194242Y-2500044D01*
X14194244Y-2500045D01*
X14350998Y-2520682D01*
X14351000Y-2520682D01*
X14351002Y-2520682D01*
X14507755Y-2500045D01*
X14507755Y-2500044D01*
X14507762Y-2500044D01*
X14653841Y-2439536D01*
X14779282Y-2343282D01*
X14875536Y-2217841D01*
X14936044Y-2071762D01*
X14936045Y-2071755D01*
X14956682Y-1915001D01*
X14956682Y-1914998D01*
X14936045Y-1758244D01*
X14936044Y-1758242D01*
X14936044Y-1758238D01*
X14875536Y-1612159D01*
X14828340Y-1550652D01*
X14779282Y-1486717D01*
X14653841Y-1390464D01*
X14653838Y-1390462D01*
X14507765Y-1329957D01*
X14507755Y-1329954D01*
X14351002Y-1309318D01*
X14350998Y-1309318D01*
X14194244Y-1329954D01*
X14194234Y-1329957D01*
X14048161Y-1390462D01*
X14048158Y-1390464D01*
X13922717Y-1486717D01*
X13826464Y-1612158D01*
X13826462Y-1612161D01*
X13765957Y-1758234D01*
X13765954Y-1758244D01*
X13745318Y-1914998D01*
X13745318Y-1915001D01*
X907067Y-1915001D01*
X816772Y-1795430D01*
X816767Y-1795425D01*
X816764Y-1795421D01*
X722209Y-1709223D01*
X666045Y-1658022D01*
X666042Y-1658020D01*
X666041Y-1658019D01*
X492637Y-1550652D01*
X492635Y-1550651D01*
X437356Y-1529236D01*
X302456Y-1476976D01*
X302453Y-1476975D01*
X302452Y-1476975D01*
X101980Y-1439500D01*
X101976Y-1439500D01*
X-101976Y-1439500D01*
X-101981Y-1439500D01*
X-302453Y-1476975D01*
X-302456Y-1476975D01*
X-302456Y-1476976D01*
X-327603Y-1486718D01*
X-492636Y-1550651D01*
X-666046Y-1658022D01*
X-816766Y-1795423D01*
X-816773Y-1795430D01*
X-939670Y-1958173D01*
X-939673Y-1958179D01*
X-1030582Y-2140749D01*
X-1086397Y-2336913D01*
X-1086399Y-2336924D01*
X-1105215Y-2539996D01*
X-1105215Y-2540003D01*
X-1604500Y-2540003D01*
X-1604500Y-3D01*
X-1105215Y-3D01*
X-1086399Y-203075D01*
X-1086397Y-203086D01*
X-1055062Y-313214D01*
X-1030582Y-399250D01*
X-939673Y-581821D01*
X-939672Y-581822D01*
X-939670Y-581826D01*
X-816773Y-744569D01*
X-816768Y-744574D01*
X-816764Y-744579D01*
X-714562Y-837748D01*
X-666046Y-881977D01*
X-666045Y-881978D01*
X-666041Y-881981D01*
X-492637Y-989348D01*
X-302456Y-1063024D01*
X-101976Y-1100500D01*
X-101973Y-1100500D01*
X101973Y-1100500D01*
X101976Y-1100500D01*
X302456Y-1063024D01*
X492637Y-989348D01*
X666041Y-881981D01*
X714559Y-837751D01*
X9376068Y-837751D01*
X9396704Y-994505D01*
X9396707Y-994515D01*
X9457212Y-1140588D01*
X9457214Y-1140591D01*
X9553467Y-1266032D01*
X9636777Y-1329957D01*
X9678909Y-1362286D01*
X9824988Y-1422794D01*
X9824992Y-1422794D01*
X9824994Y-1422795D01*
X9981748Y-1443432D01*
X9981750Y-1443432D01*
X9981752Y-1443432D01*
X10138505Y-1422795D01*
X10138505Y-1422794D01*
X10138512Y-1422794D01*
X10284591Y-1362286D01*
X10410032Y-1266032D01*
X10506286Y-1140591D01*
X10566794Y-994512D01*
X10581609Y-881981D01*
X10587432Y-837751D01*
X10587432Y-837748D01*
X10566795Y-680994D01*
X10566794Y-680992D01*
X10566794Y-680988D01*
X10506286Y-534909D01*
X10483889Y-505721D01*
X10410032Y-409467D01*
X10284591Y-313214D01*
X10284588Y-313212D01*
X10138515Y-252707D01*
X10138505Y-252704D01*
X9981752Y-232068D01*
X9981748Y-232068D01*
X9824994Y-252704D01*
X9824984Y-252707D01*
X9678911Y-313212D01*
X9678908Y-313214D01*
X9553467Y-409467D01*
X9457214Y-534908D01*
X9457212Y-534911D01*
X9396707Y-680984D01*
X9396704Y-680994D01*
X9376068Y-837748D01*
X9376068Y-837751D01*
X714559Y-837751D01*
X816764Y-744579D01*
X939673Y-581821D01*
X1030582Y-399250D01*
X1086397Y-203083D01*
X1105215Y-3D01*
X16674785Y-3D01*
X16693601Y-203075D01*
X16693603Y-203086D01*
X16724938Y-313214D01*
X16749418Y-399250D01*
X16840327Y-581821D01*
X16840328Y-581822D01*
X16840330Y-581826D01*
X16963227Y-744569D01*
X16963232Y-744574D01*
X16963236Y-744579D01*
X17065438Y-837748D01*
X17113954Y-881977D01*
X17113955Y-881978D01*
X17113959Y-881981D01*
X17287363Y-989348D01*
X17477544Y-1063024D01*
X17678024Y-1100500D01*
X17678027Y-1100500D01*
X17881973Y-1100500D01*
X17881976Y-1100500D01*
X18082456Y-1063024D01*
X18272637Y-989348D01*
X18446041Y-881981D01*
X18596764Y-744579D01*
X18719673Y-581821D01*
X18810582Y-399250D01*
X18866397Y-203083D01*
X18885215Y0D01*
X18866397Y203083D01*
X18810582Y399250D01*
X18719673Y581821D01*
X18719670Y581825D01*
X18719669Y581827D01*
X18596772Y744570D01*
X18596767Y744575D01*
X18596764Y744579D01*
X18502209Y830777D01*
X18446045Y881978D01*
X18446042Y881980D01*
X18446041Y881981D01*
X18272637Y989348D01*
X18272635Y989349D01*
X18217356Y1010764D01*
X18082456Y1063024D01*
X18082453Y1063025D01*
X18082452Y1063025D01*
X17881980Y1100500D01*
X17881976Y1100500D01*
X17678024Y1100500D01*
X17678019Y1100500D01*
X17477547Y1063025D01*
X17287364Y989349D01*
X17113954Y881978D01*
X16963234Y744577D01*
X16963227Y744570D01*
X16840330Y581827D01*
X16840327Y581821D01*
X16749418Y399251D01*
X16693603Y203087D01*
X16693601Y203076D01*
X16674785Y4D01*
X16674785Y-3D01*
X1105215Y-3D01*
X1105215Y0D01*
X1086397Y203083D01*
X1030582Y399250D01*
X939673Y581821D01*
X939670Y581825D01*
X939669Y581827D01*
X816772Y744570D01*
X816767Y744575D01*
X816764Y744579D01*
X722209Y830777D01*
X666045Y881978D01*
X666042Y881980D01*
X666041Y881981D01*
X492637Y989348D01*
X492635Y989349D01*
X437356Y1010764D01*
X302456Y1063024D01*
X302453Y1063025D01*
X302452Y1063025D01*
X101980Y1100500D01*
X101976Y1100500D01*
X-101976Y1100500D01*
X-101981Y1100500D01*
X-302453Y1063025D01*
X-492636Y989349D01*
X-666046Y881978D01*
X-816766Y744577D01*
X-816773Y744570D01*
X-939670Y581827D01*
X-939673Y581821D01*
X-1030582Y399251D01*
X-1086397Y203087D01*
X-1086399Y203076D01*
X-1105215Y4D01*
X-1105215Y-3D01*
X-1604500Y-3D01*
X-1604500Y2539997D01*
X-1105215Y2539997D01*
X-1086399Y2336925D01*
X-1086397Y2336914D01*
X-1030582Y2140750D01*
X-939673Y1958179D01*
X-939672Y1958178D01*
X-939670Y1958174D01*
X-816773Y1795431D01*
X-816768Y1795426D01*
X-816764Y1795421D01*
X-714533Y1702225D01*
X-666046Y1658023D01*
X-666045Y1658022D01*
X-666041Y1658019D01*
X-492637Y1550652D01*
X-302456Y1476976D01*
X-101976Y1439500D01*
X-101973Y1439500D01*
X101973Y1439500D01*
X101976Y1439500D01*
X302456Y1476976D01*
X492637Y1550652D01*
X666041Y1658019D01*
X816764Y1795421D01*
X939673Y1958179D01*
X1030582Y2140750D01*
X1086397Y2336917D01*
X1105215Y2540000D01*
X1086397Y2743083D01*
X1030582Y2939250D01*
X939673Y3121821D01*
X939670Y3121825D01*
X939669Y3121827D01*
X816772Y3284570D01*
X816767Y3284575D01*
X816764Y3284579D01*
X722209Y3370777D01*
X666045Y3421978D01*
X666042Y3421980D01*
X666041Y3421981D01*
X654707Y3428999D01*
X8538318Y3428999D01*
X8558954Y3272245D01*
X8558957Y3272235D01*
X8619462Y3126162D01*
X8619464Y3126159D01*
X8715717Y3000718D01*
X8795825Y2939250D01*
X8841159Y2904464D01*
X8987238Y2843956D01*
X8987242Y2843956D01*
X8987244Y2843955D01*
X9143998Y2823318D01*
X9144000Y2823318D01*
X9144002Y2823318D01*
X9300755Y2843955D01*
X9300755Y2843956D01*
X9300762Y2843956D01*
X9446841Y2904464D01*
X9572282Y3000718D01*
X9668536Y3126159D01*
X9729044Y3272238D01*
X9730668Y3284570D01*
X9749682Y3428999D01*
X9749682Y3429002D01*
X9729045Y3585756D01*
X9729044Y3585758D01*
X9729044Y3585762D01*
X9668536Y3731841D01*
X9621251Y3793464D01*
X9572282Y3857283D01*
X9446841Y3953536D01*
X9446838Y3953538D01*
X9300765Y4014043D01*
X9300755Y4014046D01*
X9144002Y4034682D01*
X9143998Y4034682D01*
X8987244Y4014046D01*
X8987234Y4014043D01*
X8841161Y3953538D01*
X8841158Y3953536D01*
X8715717Y3857283D01*
X8619464Y3731842D01*
X8619462Y3731839D01*
X8558957Y3585766D01*
X8558954Y3585756D01*
X8538318Y3429002D01*
X8538318Y3428999D01*
X654707Y3428999D01*
X492637Y3529348D01*
X492635Y3529349D01*
X437356Y3550764D01*
X302456Y3603024D01*
X302453Y3603025D01*
X302452Y3603025D01*
X101980Y3640500D01*
X101976Y3640500D01*
X-101976Y3640500D01*
X-101981Y3640500D01*
X-302453Y3603025D01*
X-492636Y3529349D01*
X-666046Y3421978D01*
X-816766Y3284577D01*
X-816773Y3284570D01*
X-939670Y3121827D01*
X-939673Y3121821D01*
X-1030582Y2939251D01*
X-1086397Y2743087D01*
X-1086399Y2743076D01*
X-1105215Y2540004D01*
X-1105215Y2539997D01*
X-1604500Y2539997D01*
X-1604500Y5079997D01*
X-1105215Y5079997D01*
X-1086399Y4876925D01*
X-1086397Y4876914D01*
X-1065424Y4803204D01*
X-1030582Y4680750D01*
X-939673Y4498179D01*
X-939672Y4498178D01*
X-939670Y4498174D01*
X-816773Y4335431D01*
X-816768Y4335426D01*
X-816764Y4335421D01*
X-714533Y4242225D01*
X-666046Y4198023D01*
X-666045Y4198022D01*
X-666041Y4198019D01*
X-492637Y4090652D01*
X-302456Y4016976D01*
X-101976Y3979500D01*
X-101973Y3979500D01*
X101973Y3979500D01*
X101976Y3979500D01*
X302456Y4016976D01*
X492637Y4090652D01*
X666041Y4198019D01*
X797653Y4317999D01*
X15396318Y4317999D01*
X15416954Y4161245D01*
X15416957Y4161235D01*
X15477462Y4015162D01*
X15477464Y4015159D01*
X15573717Y3889718D01*
X15669971Y3815861D01*
X15699159Y3793464D01*
X15845238Y3732956D01*
X15845242Y3732956D01*
X15845244Y3732955D01*
X16001998Y3712318D01*
X16002000Y3712318D01*
X16002002Y3712318D01*
X16158755Y3732955D01*
X16158755Y3732956D01*
X16158762Y3732956D01*
X16304841Y3793464D01*
X16430282Y3889718D01*
X16445820Y3909969D01*
X16487244Y3933886D01*
X16533450Y3921507D01*
X16545437Y3909376D01*
X16572804Y3872818D01*
X16572815Y3872808D01*
X16687905Y3786650D01*
X16687908Y3786648D01*
X16822622Y3736403D01*
X16882164Y3730001D01*
X16882178Y3730000D01*
X17482322Y3730000D01*
X17526516Y3711694D01*
X17544822Y3667500D01*
X17526516Y3623306D01*
X17493806Y3606064D01*
X17477547Y3603025D01*
X17287364Y3529349D01*
X17113954Y3421978D01*
X16963234Y3284577D01*
X16963227Y3284570D01*
X16840330Y3121827D01*
X16840327Y3121821D01*
X16749418Y2939251D01*
X16693603Y2743087D01*
X16693601Y2743076D01*
X16674785Y2540004D01*
X16674785Y2539997D01*
X16693601Y2336925D01*
X16693603Y2336914D01*
X16749418Y2140750D01*
X16840327Y1958179D01*
X16840328Y1958178D01*
X16840330Y1958174D01*
X16963227Y1795431D01*
X16963232Y1795426D01*
X16963236Y1795421D01*
X17065467Y1702225D01*
X17113954Y1658023D01*
X17113955Y1658022D01*
X17113959Y1658019D01*
X17287363Y1550652D01*
X17477544Y1476976D01*
X17678024Y1439500D01*
X17678027Y1439500D01*
X17881973Y1439500D01*
X17881976Y1439500D01*
X18082456Y1476976D01*
X18272637Y1550652D01*
X18446041Y1658019D01*
X18596764Y1795421D01*
X18719673Y1958179D01*
X18810582Y2140750D01*
X18866397Y2336917D01*
X18885215Y2540000D01*
X18866397Y2743083D01*
X18810582Y2939250D01*
X18719673Y3121821D01*
X18719670Y3121825D01*
X18719669Y3121827D01*
X18596772Y3284570D01*
X18596767Y3284575D01*
X18596764Y3284579D01*
X18502209Y3370777D01*
X18446045Y3421978D01*
X18446042Y3421980D01*
X18446041Y3421981D01*
X18272637Y3529348D01*
X18272635Y3529349D01*
X18217356Y3550764D01*
X18082456Y3603024D01*
X18082453Y3603025D01*
X18082452Y3603025D01*
X18066194Y3606064D01*
X18026116Y3632179D01*
X18016242Y3678984D01*
X18042357Y3719062D01*
X18077678Y3730000D01*
X18677822Y3730000D01*
X18677835Y3730001D01*
X18737377Y3736403D01*
X18872091Y3786648D01*
X18872094Y3786650D01*
X18987186Y3872809D01*
X18987191Y3872814D01*
X19073350Y3987906D01*
X19073352Y3987909D01*
X19123597Y4122623D01*
X19129999Y4182165D01*
X19130000Y4182178D01*
X19130000Y4830000D01*
X18213686Y4830000D01*
X18239493Y4870156D01*
X18280000Y5008111D01*
X18280000Y5151889D01*
X18239493Y5289844D01*
X18213686Y5330000D01*
X19130000Y5330000D01*
X19130000Y5977823D01*
X19129999Y5977836D01*
X19123597Y6037378D01*
X19073352Y6172092D01*
X19073350Y6172095D01*
X18987191Y6287187D01*
X18987186Y6287192D01*
X18872094Y6373351D01*
X18872091Y6373353D01*
X18737377Y6423598D01*
X18677835Y6430000D01*
X18030000Y6430000D01*
X18030000Y5515502D01*
X17922315Y5564680D01*
X17815763Y5580000D01*
X17744237Y5580000D01*
X17637685Y5564680D01*
X17530000Y5515502D01*
X17530000Y6430000D01*
X16882164Y6430000D01*
X16822622Y6423598D01*
X16687908Y6373353D01*
X16687905Y6373351D01*
X16572813Y6287192D01*
X16572808Y6287187D01*
X16486649Y6172095D01*
X16486647Y6172092D01*
X16436402Y6037378D01*
X16430000Y5977836D01*
X16430000Y5330000D01*
X17346314Y5330000D01*
X17320507Y5289844D01*
X17280000Y5151889D01*
X17280000Y5008111D01*
X17320507Y4870156D01*
X17346314Y4830000D01*
X16429999Y4830000D01*
X16421508Y4821509D01*
X16377314Y4803204D01*
X16339268Y4816119D01*
X16304841Y4842536D01*
X16304837Y4842538D01*
X16304838Y4842538D01*
X16158765Y4903043D01*
X16158755Y4903046D01*
X16002002Y4923682D01*
X16001998Y4923682D01*
X15845244Y4903046D01*
X15845234Y4903043D01*
X15699161Y4842538D01*
X15699158Y4842536D01*
X15573717Y4746283D01*
X15477464Y4620842D01*
X15477462Y4620839D01*
X15416957Y4474766D01*
X15416954Y4474756D01*
X15396318Y4318002D01*
X15396318Y4317999D01*
X797653Y4317999D01*
X816764Y4335421D01*
X939673Y4498179D01*
X1030582Y4680750D01*
X1086397Y4876917D01*
X1090690Y4923245D01*
X1105215Y5079997D01*
X1105215Y5079999D01*
X8538318Y5079999D01*
X8558954Y4923245D01*
X8558957Y4923235D01*
X8619462Y4777162D01*
X8619464Y4777159D01*
X8715717Y4651718D01*
X8809183Y4580000D01*
X8841159Y4555464D01*
X8987238Y4494956D01*
X8987242Y4494956D01*
X8987244Y4494955D01*
X9143998Y4474318D01*
X9144000Y4474318D01*
X9144002Y4474318D01*
X9300755Y4494955D01*
X9300755Y4494956D01*
X9300762Y4494956D01*
X9446841Y4555464D01*
X9572282Y4651718D01*
X9668536Y4777159D01*
X9729044Y4923238D01*
X9729045Y4923245D01*
X9749682Y5079999D01*
X9749682Y5080002D01*
X9729045Y5236756D01*
X9729044Y5236758D01*
X9729044Y5236762D01*
X9668536Y5382841D01*
X9642541Y5416718D01*
X9572282Y5508283D01*
X9446841Y5604536D01*
X9446838Y5604538D01*
X9300765Y5665043D01*
X9300755Y5665046D01*
X9144002Y5685682D01*
X9143998Y5685682D01*
X8987244Y5665046D01*
X8987234Y5665043D01*
X8841161Y5604538D01*
X8841158Y5604536D01*
X8715717Y5508283D01*
X8619464Y5382842D01*
X8619462Y5382839D01*
X8558957Y5236766D01*
X8558954Y5236756D01*
X8538318Y5080002D01*
X8538318Y5079999D01*
X1105215Y5079999D01*
X1105215Y5080004D01*
X1086398Y5283076D01*
X1086396Y5283087D01*
X1073048Y5330000D01*
X1030582Y5479250D01*
X939673Y5661821D01*
X939670Y5661825D01*
X939669Y5661827D01*
X816772Y5824570D01*
X816767Y5824575D01*
X816764Y5824579D01*
X794364Y5844999D01*
X4855318Y5844999D01*
X4875954Y5688245D01*
X4875957Y5688235D01*
X4936462Y5542162D01*
X4936464Y5542159D01*
X5032717Y5416718D01*
X5076866Y5382842D01*
X5158159Y5320464D01*
X5304238Y5259956D01*
X5304242Y5259956D01*
X5304244Y5259955D01*
X5460998Y5239318D01*
X5461000Y5239318D01*
X5461002Y5239318D01*
X5617755Y5259955D01*
X5617755Y5259956D01*
X5617762Y5259956D01*
X5763841Y5320464D01*
X5889282Y5416718D01*
X5985536Y5542159D01*
X6046044Y5688238D01*
X6047592Y5699999D01*
X12602318Y5699999D01*
X12622954Y5543245D01*
X12622957Y5543235D01*
X12683462Y5397162D01*
X12683464Y5397159D01*
X12779717Y5271718D01*
X12825281Y5236756D01*
X12905159Y5175464D01*
X13051238Y5114956D01*
X13051242Y5114956D01*
X13051244Y5114955D01*
X13207998Y5094318D01*
X13208000Y5094318D01*
X13208002Y5094318D01*
X13364755Y5114955D01*
X13364755Y5114956D01*
X13364762Y5114956D01*
X13510841Y5175464D01*
X13636282Y5271718D01*
X13732536Y5397159D01*
X13793044Y5543238D01*
X13808656Y5661821D01*
X13813682Y5699999D01*
X13813682Y5700002D01*
X13793045Y5856756D01*
X13793044Y5856758D01*
X13793044Y5856762D01*
X13742899Y5977823D01*
X13732537Y6002839D01*
X13732535Y6002842D01*
X13636282Y6128283D01*
X13510841Y6224536D01*
X13510838Y6224538D01*
X13364765Y6285043D01*
X13364755Y6285046D01*
X13208002Y6305682D01*
X13207998Y6305682D01*
X13051244Y6285046D01*
X13051234Y6285043D01*
X12905161Y6224538D01*
X12905158Y6224536D01*
X12779717Y6128283D01*
X12683464Y6002842D01*
X12683462Y6002839D01*
X12622957Y5856766D01*
X12622954Y5856756D01*
X12602318Y5700002D01*
X12602318Y5699999D01*
X6047592Y5699999D01*
X6066682Y5844999D01*
X6066682Y5845002D01*
X6046045Y6001756D01*
X6046044Y6001758D01*
X6046044Y6001762D01*
X5985536Y6147841D01*
X5926686Y6224536D01*
X5889282Y6273283D01*
X5763841Y6369536D01*
X5763838Y6369538D01*
X5617765Y6430043D01*
X5617755Y6430046D01*
X5461002Y6450682D01*
X5460998Y6450682D01*
X5304244Y6430046D01*
X5304234Y6430043D01*
X5158161Y6369538D01*
X5158158Y6369536D01*
X5032717Y6273283D01*
X4936464Y6147842D01*
X4936462Y6147839D01*
X4875957Y6001766D01*
X4875954Y6001756D01*
X4855318Y5845002D01*
X4855318Y5844999D01*
X794364Y5844999D01*
X722209Y5910777D01*
X666045Y5961978D01*
X666042Y5961980D01*
X666041Y5961981D01*
X492637Y6069348D01*
X492635Y6069349D01*
X437356Y6090764D01*
X302456Y6143024D01*
X302453Y6143025D01*
X302452Y6143025D01*
X101980Y6180500D01*
X101976Y6180500D01*
X-101976Y6180500D01*
X-101981Y6180500D01*
X-302453Y6143025D01*
X-492636Y6069349D01*
X-666046Y5961978D01*
X-816766Y5824577D01*
X-816773Y5824570D01*
X-939670Y5661827D01*
X-939673Y5661821D01*
X-1030582Y5479251D01*
X-1086397Y5283087D01*
X-1086399Y5283076D01*
X-1105215Y5080004D01*
X-1105215Y5079997D01*
X-1604500Y5079997D01*
X-1604500Y5713638D01*
X-1604381Y5716363D01*
X-1602064Y5742844D01*
X-1590247Y5877913D01*
X-1588358Y5888629D01*
X-1547447Y6041311D01*
X-1543724Y6051539D01*
X-1476922Y6194798D01*
X-1471477Y6204227D01*
X-1413384Y6287192D01*
X-1380815Y6333708D01*
X-1373818Y6342046D01*
X-1262046Y6453818D01*
X-1253706Y6460815D01*
X-1124227Y6551477D01*
X-1114798Y6556922D01*
X-971539Y6623724D01*
X-961311Y6627447D01*
X-808629Y6668358D01*
X-797913Y6670247D01*
X-636359Y6684382D01*
X-633637Y6684500D01*
X-587405Y6684500D01*
X18367405Y6684500D01*
X18413637Y6684500D01*
X18416358Y6684382D01*
G37*
%TD.AperFunction*%
%TD*%
M02*
