%TF.GenerationSoftware,KiCad,Pcbnew,7.0.9*%
%TF.CreationDate,2024-01-07T19:57:31+00:00*%
%TF.ProjectId,INA381 Breakout,494e4133-3831-4204-9272-65616b6f7574,V24.01.0.1*%
%TF.SameCoordinates,PX8841978PY54c5a90*%
%TF.FileFunction,Drillmap*%
%TF.FilePolarity,Positive*%
%FSLAX45Y45*%
G04 Gerber Fmt 4.5, Leading zero omitted, Abs format (unit mm)*
G04 Created by KiCad (PCBNEW 7.0.9) date 2024-01-07 19:57:31*
%MOMM*%
%LPD*%
G01*
G04 APERTURE LIST*
%ADD10C,0.100000*%
%ADD11C,0.200000*%
G04 APERTURE END LIST*
D10*
X1968500Y571500D02*
G75*
G03*
X1841500Y698500I-127000J0D01*
G01*
X1841500Y-698500D02*
G75*
G03*
X1968500Y-571500I0J127000D01*
G01*
X-63500Y698500D02*
G75*
G03*
X-190500Y571500I0J-127000D01*
G01*
X-190500Y-571500D02*
G75*
G03*
X-63500Y-698500I127000J0D01*
G01*
X-190500Y571500D02*
X-190500Y-571500D01*
X-63500Y698500D02*
X1841500Y698500D01*
X1968500Y-571500D02*
X1968500Y571500D01*
X1841500Y-698500D02*
X-63500Y-698500D01*
D11*
D10*
X531100Y599500D02*
X561100Y569500D01*
X561100Y599500D02*
X531100Y569500D01*
X532400Y-571500D02*
X562400Y-601500D01*
X562400Y-571500D02*
X532400Y-601500D01*
X721600Y-416800D02*
X751600Y-446800D01*
X751600Y-416800D02*
X721600Y-446800D01*
X721600Y-569200D02*
X751600Y-599200D01*
X751600Y-569200D02*
X721600Y-599200D01*
X899400Y523000D02*
X929400Y493000D01*
X929400Y523000D02*
X899400Y493000D01*
X899400Y357900D02*
X929400Y327900D01*
X929400Y357900D02*
X899400Y327900D01*
X912100Y-569200D02*
X942100Y-599200D01*
X942100Y-569200D02*
X912100Y-599200D01*
X983175Y-68775D02*
X1013175Y-98775D01*
X1013175Y-68775D02*
X983175Y-98775D01*
X1051800Y-303500D02*
X1081800Y-333500D01*
X1081800Y-303500D02*
X1051800Y-333500D01*
X1089900Y14000D02*
X1119900Y-16000D01*
X1119900Y14000D02*
X1089900Y-16000D01*
X1166100Y319800D02*
X1196100Y289800D01*
X1196100Y319800D02*
X1166100Y289800D01*
X1305800Y585000D02*
X1335800Y555000D01*
X1335800Y585000D02*
X1305800Y555000D01*
X1420100Y-176500D02*
X1450100Y-206500D01*
X1450100Y-176500D02*
X1420100Y-206500D01*
X1420100Y-368450D02*
X1450100Y-398450D01*
X1450100Y-368450D02*
X1420100Y-398450D01*
X1420100Y-557500D02*
X1450100Y-587500D01*
X1450100Y-557500D02*
X1420100Y-587500D01*
X1572500Y-467600D02*
X1602500Y-497600D01*
X1602500Y-467600D02*
X1572500Y-497600D01*
X1585200Y446800D02*
X1615200Y416800D01*
X1615200Y446800D02*
X1585200Y416800D01*
X50000Y508000D02*
G75*
G03*
X50000Y508000I-50000J0D01*
G01*
X50000Y254000D02*
G75*
G03*
X50000Y254000I-50000J0D01*
G01*
X50000Y0D02*
G75*
G03*
X50000Y0I-50000J0D01*
G01*
X50000Y-254000D02*
G75*
G03*
X50000Y-254000I-50000J0D01*
G01*
X50000Y-508000D02*
G75*
G03*
X50000Y-508000I-50000J0D01*
G01*
X1828000Y508000D02*
G75*
G03*
X1828000Y508000I-50000J0D01*
G01*
X1828000Y254000D02*
G75*
G03*
X1828000Y254000I-50000J0D01*
G01*
X1828000Y0D02*
G75*
G03*
X1828000Y0I-50000J0D01*
G01*
X1828000Y-254000D02*
G75*
G03*
X1828000Y-254000I-50000J0D01*
G01*
X1828000Y-508000D02*
G75*
G03*
X1828000Y-508000I-50000J0D01*
G01*
D11*
X65277Y-1014984D02*
X65277Y-814984D01*
X65277Y-814984D02*
X112896Y-814984D01*
X112896Y-814984D02*
X141467Y-824508D01*
X141467Y-824508D02*
X160515Y-843555D01*
X160515Y-843555D02*
X170039Y-862603D01*
X170039Y-862603D02*
X179562Y-900698D01*
X179562Y-900698D02*
X179562Y-929269D01*
X179562Y-929269D02*
X170039Y-967365D01*
X170039Y-967365D02*
X160515Y-986412D01*
X160515Y-986412D02*
X141467Y-1005460D01*
X141467Y-1005460D02*
X112896Y-1014984D01*
X112896Y-1014984D02*
X65277Y-1014984D01*
X265277Y-1014984D02*
X265277Y-881650D01*
X265277Y-919746D02*
X274801Y-900698D01*
X274801Y-900698D02*
X284324Y-891174D01*
X284324Y-891174D02*
X303372Y-881650D01*
X303372Y-881650D02*
X322420Y-881650D01*
X389086Y-1014984D02*
X389086Y-881650D01*
X389086Y-814984D02*
X379562Y-824508D01*
X379562Y-824508D02*
X389086Y-834031D01*
X389086Y-834031D02*
X398610Y-824508D01*
X398610Y-824508D02*
X389086Y-814984D01*
X389086Y-814984D02*
X389086Y-834031D01*
X512896Y-1014984D02*
X493848Y-1005460D01*
X493848Y-1005460D02*
X484324Y-986412D01*
X484324Y-986412D02*
X484324Y-814984D01*
X617658Y-1014984D02*
X598610Y-1005460D01*
X598610Y-1005460D02*
X589086Y-986412D01*
X589086Y-986412D02*
X589086Y-814984D01*
X846229Y-1014984D02*
X846229Y-814984D01*
X846229Y-814984D02*
X912896Y-957841D01*
X912896Y-957841D02*
X979562Y-814984D01*
X979562Y-814984D02*
X979562Y-1014984D01*
X1160515Y-1014984D02*
X1160515Y-910222D01*
X1160515Y-910222D02*
X1150991Y-891174D01*
X1150991Y-891174D02*
X1131944Y-881650D01*
X1131944Y-881650D02*
X1093848Y-881650D01*
X1093848Y-881650D02*
X1074801Y-891174D01*
X1160515Y-1005460D02*
X1141467Y-1014984D01*
X1141467Y-1014984D02*
X1093848Y-1014984D01*
X1093848Y-1014984D02*
X1074801Y-1005460D01*
X1074801Y-1005460D02*
X1065277Y-986412D01*
X1065277Y-986412D02*
X1065277Y-967365D01*
X1065277Y-967365D02*
X1074801Y-948317D01*
X1074801Y-948317D02*
X1093848Y-938793D01*
X1093848Y-938793D02*
X1141467Y-938793D01*
X1141467Y-938793D02*
X1160515Y-929269D01*
X1255753Y-881650D02*
X1255753Y-1081650D01*
X1255753Y-891174D02*
X1274801Y-881650D01*
X1274801Y-881650D02*
X1312896Y-881650D01*
X1312896Y-881650D02*
X1331944Y-891174D01*
X1331944Y-891174D02*
X1341467Y-900698D01*
X1341467Y-900698D02*
X1350991Y-919746D01*
X1350991Y-919746D02*
X1350991Y-976888D01*
X1350991Y-976888D02*
X1341467Y-995936D01*
X1341467Y-995936D02*
X1331944Y-1005460D01*
X1331944Y-1005460D02*
X1312896Y-1014984D01*
X1312896Y-1014984D02*
X1274801Y-1014984D01*
X1274801Y-1014984D02*
X1255753Y-1005460D01*
X1436705Y-995936D02*
X1446229Y-1005460D01*
X1446229Y-1005460D02*
X1436705Y-1014984D01*
X1436705Y-1014984D02*
X1427182Y-1005460D01*
X1427182Y-1005460D02*
X1436705Y-995936D01*
X1436705Y-995936D02*
X1436705Y-1014984D01*
X1436705Y-891174D02*
X1446229Y-900698D01*
X1446229Y-900698D02*
X1436705Y-910222D01*
X1436705Y-910222D02*
X1427182Y-900698D01*
X1427182Y-900698D02*
X1436705Y-891174D01*
X1436705Y-891174D02*
X1436705Y-910222D01*
D10*
X-225500Y-1328500D02*
X-195500Y-1358500D01*
X-195500Y-1328500D02*
X-225500Y-1358500D01*
D11*
X103372Y-1234984D02*
X122420Y-1234984D01*
X122420Y-1234984D02*
X141467Y-1244508D01*
X141467Y-1244508D02*
X150991Y-1254031D01*
X150991Y-1254031D02*
X160515Y-1273079D01*
X160515Y-1273079D02*
X170039Y-1311174D01*
X170039Y-1311174D02*
X170039Y-1358793D01*
X170039Y-1358793D02*
X160515Y-1396889D01*
X160515Y-1396889D02*
X150991Y-1415936D01*
X150991Y-1415936D02*
X141467Y-1425460D01*
X141467Y-1425460D02*
X122420Y-1434984D01*
X122420Y-1434984D02*
X103372Y-1434984D01*
X103372Y-1434984D02*
X84324Y-1425460D01*
X84324Y-1425460D02*
X74801Y-1415936D01*
X74801Y-1415936D02*
X65277Y-1396889D01*
X65277Y-1396889D02*
X55753Y-1358793D01*
X55753Y-1358793D02*
X55753Y-1311174D01*
X55753Y-1311174D02*
X65277Y-1273079D01*
X65277Y-1273079D02*
X74801Y-1254031D01*
X74801Y-1254031D02*
X84324Y-1244508D01*
X84324Y-1244508D02*
X103372Y-1234984D01*
X255753Y-1415936D02*
X265277Y-1425460D01*
X265277Y-1425460D02*
X255753Y-1434984D01*
X255753Y-1434984D02*
X246229Y-1425460D01*
X246229Y-1425460D02*
X255753Y-1415936D01*
X255753Y-1415936D02*
X255753Y-1434984D01*
X331944Y-1234984D02*
X455753Y-1234984D01*
X455753Y-1234984D02*
X389086Y-1311174D01*
X389086Y-1311174D02*
X417658Y-1311174D01*
X417658Y-1311174D02*
X436705Y-1320698D01*
X436705Y-1320698D02*
X446229Y-1330222D01*
X446229Y-1330222D02*
X455753Y-1349270D01*
X455753Y-1349270D02*
X455753Y-1396889D01*
X455753Y-1396889D02*
X446229Y-1415936D01*
X446229Y-1415936D02*
X436705Y-1425460D01*
X436705Y-1425460D02*
X417658Y-1434984D01*
X417658Y-1434984D02*
X360515Y-1434984D01*
X360515Y-1434984D02*
X341467Y-1425460D01*
X341467Y-1425460D02*
X331944Y-1415936D01*
X579563Y-1234984D02*
X598610Y-1234984D01*
X598610Y-1234984D02*
X617658Y-1244508D01*
X617658Y-1244508D02*
X627182Y-1254031D01*
X627182Y-1254031D02*
X636705Y-1273079D01*
X636705Y-1273079D02*
X646229Y-1311174D01*
X646229Y-1311174D02*
X646229Y-1358793D01*
X646229Y-1358793D02*
X636705Y-1396889D01*
X636705Y-1396889D02*
X627182Y-1415936D01*
X627182Y-1415936D02*
X617658Y-1425460D01*
X617658Y-1425460D02*
X598610Y-1434984D01*
X598610Y-1434984D02*
X579563Y-1434984D01*
X579563Y-1434984D02*
X560515Y-1425460D01*
X560515Y-1425460D02*
X550991Y-1415936D01*
X550991Y-1415936D02*
X541467Y-1396889D01*
X541467Y-1396889D02*
X531944Y-1358793D01*
X531944Y-1358793D02*
X531944Y-1311174D01*
X531944Y-1311174D02*
X541467Y-1273079D01*
X541467Y-1273079D02*
X550991Y-1254031D01*
X550991Y-1254031D02*
X560515Y-1244508D01*
X560515Y-1244508D02*
X579563Y-1234984D01*
X770039Y-1234984D02*
X789086Y-1234984D01*
X789086Y-1234984D02*
X808134Y-1244508D01*
X808134Y-1244508D02*
X817658Y-1254031D01*
X817658Y-1254031D02*
X827182Y-1273079D01*
X827182Y-1273079D02*
X836705Y-1311174D01*
X836705Y-1311174D02*
X836705Y-1358793D01*
X836705Y-1358793D02*
X827182Y-1396889D01*
X827182Y-1396889D02*
X817658Y-1415936D01*
X817658Y-1415936D02*
X808134Y-1425460D01*
X808134Y-1425460D02*
X789086Y-1434984D01*
X789086Y-1434984D02*
X770039Y-1434984D01*
X770039Y-1434984D02*
X750991Y-1425460D01*
X750991Y-1425460D02*
X741467Y-1415936D01*
X741467Y-1415936D02*
X731943Y-1396889D01*
X731943Y-1396889D02*
X722420Y-1358793D01*
X722420Y-1358793D02*
X722420Y-1311174D01*
X722420Y-1311174D02*
X731943Y-1273079D01*
X731943Y-1273079D02*
X741467Y-1254031D01*
X741467Y-1254031D02*
X750991Y-1244508D01*
X750991Y-1244508D02*
X770039Y-1234984D01*
X922420Y-1434984D02*
X922420Y-1301650D01*
X922420Y-1320698D02*
X931943Y-1311174D01*
X931943Y-1311174D02*
X950991Y-1301650D01*
X950991Y-1301650D02*
X979563Y-1301650D01*
X979563Y-1301650D02*
X998610Y-1311174D01*
X998610Y-1311174D02*
X1008134Y-1330222D01*
X1008134Y-1330222D02*
X1008134Y-1434984D01*
X1008134Y-1330222D02*
X1017658Y-1311174D01*
X1017658Y-1311174D02*
X1036705Y-1301650D01*
X1036705Y-1301650D02*
X1065277Y-1301650D01*
X1065277Y-1301650D02*
X1084325Y-1311174D01*
X1084325Y-1311174D02*
X1093848Y-1330222D01*
X1093848Y-1330222D02*
X1093848Y-1434984D01*
X1189086Y-1434984D02*
X1189086Y-1301650D01*
X1189086Y-1320698D02*
X1198610Y-1311174D01*
X1198610Y-1311174D02*
X1217658Y-1301650D01*
X1217658Y-1301650D02*
X1246229Y-1301650D01*
X1246229Y-1301650D02*
X1265277Y-1311174D01*
X1265277Y-1311174D02*
X1274801Y-1330222D01*
X1274801Y-1330222D02*
X1274801Y-1434984D01*
X1274801Y-1330222D02*
X1284325Y-1311174D01*
X1284325Y-1311174D02*
X1303372Y-1301650D01*
X1303372Y-1301650D02*
X1331944Y-1301650D01*
X1331944Y-1301650D02*
X1350991Y-1311174D01*
X1350991Y-1311174D02*
X1360515Y-1330222D01*
X1360515Y-1330222D02*
X1360515Y-1434984D01*
X1750991Y-1225460D02*
X1579563Y-1482603D01*
X2008134Y-1234984D02*
X2027182Y-1234984D01*
X2027182Y-1234984D02*
X2046229Y-1244508D01*
X2046229Y-1244508D02*
X2055753Y-1254031D01*
X2055753Y-1254031D02*
X2065277Y-1273079D01*
X2065277Y-1273079D02*
X2074801Y-1311174D01*
X2074801Y-1311174D02*
X2074801Y-1358793D01*
X2074801Y-1358793D02*
X2065277Y-1396889D01*
X2065277Y-1396889D02*
X2055753Y-1415936D01*
X2055753Y-1415936D02*
X2046229Y-1425460D01*
X2046229Y-1425460D02*
X2027182Y-1434984D01*
X2027182Y-1434984D02*
X2008134Y-1434984D01*
X2008134Y-1434984D02*
X1989086Y-1425460D01*
X1989086Y-1425460D02*
X1979563Y-1415936D01*
X1979563Y-1415936D02*
X1970039Y-1396889D01*
X1970039Y-1396889D02*
X1960515Y-1358793D01*
X1960515Y-1358793D02*
X1960515Y-1311174D01*
X1960515Y-1311174D02*
X1970039Y-1273079D01*
X1970039Y-1273079D02*
X1979563Y-1254031D01*
X1979563Y-1254031D02*
X1989086Y-1244508D01*
X1989086Y-1244508D02*
X2008134Y-1234984D01*
X2160515Y-1415936D02*
X2170039Y-1425460D01*
X2170039Y-1425460D02*
X2160515Y-1434984D01*
X2160515Y-1434984D02*
X2150991Y-1425460D01*
X2150991Y-1425460D02*
X2160515Y-1415936D01*
X2160515Y-1415936D02*
X2160515Y-1434984D01*
X2293848Y-1234984D02*
X2312896Y-1234984D01*
X2312896Y-1234984D02*
X2331944Y-1244508D01*
X2331944Y-1244508D02*
X2341468Y-1254031D01*
X2341468Y-1254031D02*
X2350991Y-1273079D01*
X2350991Y-1273079D02*
X2360515Y-1311174D01*
X2360515Y-1311174D02*
X2360515Y-1358793D01*
X2360515Y-1358793D02*
X2350991Y-1396889D01*
X2350991Y-1396889D02*
X2341468Y-1415936D01*
X2341468Y-1415936D02*
X2331944Y-1425460D01*
X2331944Y-1425460D02*
X2312896Y-1434984D01*
X2312896Y-1434984D02*
X2293848Y-1434984D01*
X2293848Y-1434984D02*
X2274801Y-1425460D01*
X2274801Y-1425460D02*
X2265277Y-1415936D01*
X2265277Y-1415936D02*
X2255753Y-1396889D01*
X2255753Y-1396889D02*
X2246229Y-1358793D01*
X2246229Y-1358793D02*
X2246229Y-1311174D01*
X2246229Y-1311174D02*
X2255753Y-1273079D01*
X2255753Y-1273079D02*
X2265277Y-1254031D01*
X2265277Y-1254031D02*
X2274801Y-1244508D01*
X2274801Y-1244508D02*
X2293848Y-1234984D01*
X2550991Y-1434984D02*
X2436706Y-1434984D01*
X2493848Y-1434984D02*
X2493848Y-1234984D01*
X2493848Y-1234984D02*
X2474801Y-1263555D01*
X2474801Y-1263555D02*
X2455753Y-1282603D01*
X2455753Y-1282603D02*
X2436706Y-1292127D01*
X2741468Y-1434984D02*
X2627182Y-1434984D01*
X2684325Y-1434984D02*
X2684325Y-1234984D01*
X2684325Y-1234984D02*
X2665277Y-1263555D01*
X2665277Y-1263555D02*
X2646229Y-1282603D01*
X2646229Y-1282603D02*
X2627182Y-1292127D01*
X2855753Y-1320698D02*
X2836706Y-1311174D01*
X2836706Y-1311174D02*
X2827182Y-1301650D01*
X2827182Y-1301650D02*
X2817658Y-1282603D01*
X2817658Y-1282603D02*
X2817658Y-1273079D01*
X2817658Y-1273079D02*
X2827182Y-1254031D01*
X2827182Y-1254031D02*
X2836706Y-1244508D01*
X2836706Y-1244508D02*
X2855753Y-1234984D01*
X2855753Y-1234984D02*
X2893848Y-1234984D01*
X2893848Y-1234984D02*
X2912896Y-1244508D01*
X2912896Y-1244508D02*
X2922420Y-1254031D01*
X2922420Y-1254031D02*
X2931944Y-1273079D01*
X2931944Y-1273079D02*
X2931944Y-1282603D01*
X2931944Y-1282603D02*
X2922420Y-1301650D01*
X2922420Y-1301650D02*
X2912896Y-1311174D01*
X2912896Y-1311174D02*
X2893848Y-1320698D01*
X2893848Y-1320698D02*
X2855753Y-1320698D01*
X2855753Y-1320698D02*
X2836706Y-1330222D01*
X2836706Y-1330222D02*
X2827182Y-1339746D01*
X2827182Y-1339746D02*
X2817658Y-1358793D01*
X2817658Y-1358793D02*
X2817658Y-1396889D01*
X2817658Y-1396889D02*
X2827182Y-1415936D01*
X2827182Y-1415936D02*
X2836706Y-1425460D01*
X2836706Y-1425460D02*
X2855753Y-1434984D01*
X2855753Y-1434984D02*
X2893848Y-1434984D01*
X2893848Y-1434984D02*
X2912896Y-1425460D01*
X2912896Y-1425460D02*
X2922420Y-1415936D01*
X2922420Y-1415936D02*
X2931944Y-1396889D01*
X2931944Y-1396889D02*
X2931944Y-1358793D01*
X2931944Y-1358793D02*
X2922420Y-1339746D01*
X2922420Y-1339746D02*
X2912896Y-1330222D01*
X2912896Y-1330222D02*
X2893848Y-1320698D01*
X3008134Y-1234984D02*
X3008134Y-1273079D01*
X3084325Y-1234984D02*
X3084325Y-1273079D01*
X3379563Y-1511174D02*
X3370039Y-1501650D01*
X3370039Y-1501650D02*
X3350991Y-1473079D01*
X3350991Y-1473079D02*
X3341468Y-1454031D01*
X3341468Y-1454031D02*
X3331944Y-1425460D01*
X3331944Y-1425460D02*
X3322420Y-1377841D01*
X3322420Y-1377841D02*
X3322420Y-1339746D01*
X3322420Y-1339746D02*
X3331944Y-1292127D01*
X3331944Y-1292127D02*
X3341468Y-1263555D01*
X3341468Y-1263555D02*
X3350991Y-1244508D01*
X3350991Y-1244508D02*
X3370039Y-1215936D01*
X3370039Y-1215936D02*
X3379563Y-1206412D01*
X3560515Y-1434984D02*
X3446229Y-1434984D01*
X3503372Y-1434984D02*
X3503372Y-1234984D01*
X3503372Y-1234984D02*
X3484325Y-1263555D01*
X3484325Y-1263555D02*
X3465277Y-1282603D01*
X3465277Y-1282603D02*
X3446229Y-1292127D01*
X3627182Y-1234984D02*
X3760515Y-1234984D01*
X3760515Y-1234984D02*
X3674801Y-1434984D01*
X3989087Y-1434984D02*
X3989087Y-1234984D01*
X4074801Y-1434984D02*
X4074801Y-1330222D01*
X4074801Y-1330222D02*
X4065277Y-1311174D01*
X4065277Y-1311174D02*
X4046230Y-1301650D01*
X4046230Y-1301650D02*
X4017658Y-1301650D01*
X4017658Y-1301650D02*
X3998610Y-1311174D01*
X3998610Y-1311174D02*
X3989087Y-1320698D01*
X4198611Y-1434984D02*
X4179563Y-1425460D01*
X4179563Y-1425460D02*
X4170039Y-1415936D01*
X4170039Y-1415936D02*
X4160515Y-1396889D01*
X4160515Y-1396889D02*
X4160515Y-1339746D01*
X4160515Y-1339746D02*
X4170039Y-1320698D01*
X4170039Y-1320698D02*
X4179563Y-1311174D01*
X4179563Y-1311174D02*
X4198611Y-1301650D01*
X4198611Y-1301650D02*
X4227182Y-1301650D01*
X4227182Y-1301650D02*
X4246230Y-1311174D01*
X4246230Y-1311174D02*
X4255753Y-1320698D01*
X4255753Y-1320698D02*
X4265277Y-1339746D01*
X4265277Y-1339746D02*
X4265277Y-1396889D01*
X4265277Y-1396889D02*
X4255753Y-1415936D01*
X4255753Y-1415936D02*
X4246230Y-1425460D01*
X4246230Y-1425460D02*
X4227182Y-1434984D01*
X4227182Y-1434984D02*
X4198611Y-1434984D01*
X4379563Y-1434984D02*
X4360515Y-1425460D01*
X4360515Y-1425460D02*
X4350992Y-1406412D01*
X4350992Y-1406412D02*
X4350992Y-1234984D01*
X4531944Y-1425460D02*
X4512896Y-1434984D01*
X4512896Y-1434984D02*
X4474801Y-1434984D01*
X4474801Y-1434984D02*
X4455753Y-1425460D01*
X4455753Y-1425460D02*
X4446230Y-1406412D01*
X4446230Y-1406412D02*
X4446230Y-1330222D01*
X4446230Y-1330222D02*
X4455753Y-1311174D01*
X4455753Y-1311174D02*
X4474801Y-1301650D01*
X4474801Y-1301650D02*
X4512896Y-1301650D01*
X4512896Y-1301650D02*
X4531944Y-1311174D01*
X4531944Y-1311174D02*
X4541468Y-1330222D01*
X4541468Y-1330222D02*
X4541468Y-1349270D01*
X4541468Y-1349270D02*
X4446230Y-1368317D01*
X4617658Y-1425460D02*
X4636706Y-1434984D01*
X4636706Y-1434984D02*
X4674801Y-1434984D01*
X4674801Y-1434984D02*
X4693849Y-1425460D01*
X4693849Y-1425460D02*
X4703373Y-1406412D01*
X4703373Y-1406412D02*
X4703373Y-1396889D01*
X4703373Y-1396889D02*
X4693849Y-1377841D01*
X4693849Y-1377841D02*
X4674801Y-1368317D01*
X4674801Y-1368317D02*
X4646230Y-1368317D01*
X4646230Y-1368317D02*
X4627182Y-1358793D01*
X4627182Y-1358793D02*
X4617658Y-1339746D01*
X4617658Y-1339746D02*
X4617658Y-1330222D01*
X4617658Y-1330222D02*
X4627182Y-1311174D01*
X4627182Y-1311174D02*
X4646230Y-1301650D01*
X4646230Y-1301650D02*
X4674801Y-1301650D01*
X4674801Y-1301650D02*
X4693849Y-1311174D01*
X4770039Y-1511174D02*
X4779563Y-1501650D01*
X4779563Y-1501650D02*
X4798611Y-1473079D01*
X4798611Y-1473079D02*
X4808134Y-1454031D01*
X4808134Y-1454031D02*
X4817658Y-1425460D01*
X4817658Y-1425460D02*
X4827182Y-1377841D01*
X4827182Y-1377841D02*
X4827182Y-1339746D01*
X4827182Y-1339746D02*
X4817658Y-1292127D01*
X4817658Y-1292127D02*
X4808134Y-1263555D01*
X4808134Y-1263555D02*
X4798611Y-1244508D01*
X4798611Y-1244508D02*
X4779563Y-1215936D01*
X4779563Y-1215936D02*
X4770039Y-1206412D01*
D10*
X-195500Y-1607500D02*
G75*
G03*
X-195500Y-1607500I-50000J0D01*
G01*
D11*
X170039Y-1698984D02*
X55753Y-1698984D01*
X112896Y-1698984D02*
X112896Y-1498984D01*
X112896Y-1498984D02*
X93848Y-1527555D01*
X93848Y-1527555D02*
X74801Y-1546603D01*
X74801Y-1546603D02*
X55753Y-1556127D01*
X255753Y-1679936D02*
X265277Y-1689460D01*
X265277Y-1689460D02*
X255753Y-1698984D01*
X255753Y-1698984D02*
X246229Y-1689460D01*
X246229Y-1689460D02*
X255753Y-1679936D01*
X255753Y-1679936D02*
X255753Y-1698984D01*
X389086Y-1498984D02*
X408134Y-1498984D01*
X408134Y-1498984D02*
X427182Y-1508508D01*
X427182Y-1508508D02*
X436705Y-1518031D01*
X436705Y-1518031D02*
X446229Y-1537079D01*
X446229Y-1537079D02*
X455753Y-1575174D01*
X455753Y-1575174D02*
X455753Y-1622793D01*
X455753Y-1622793D02*
X446229Y-1660888D01*
X446229Y-1660888D02*
X436705Y-1679936D01*
X436705Y-1679936D02*
X427182Y-1689460D01*
X427182Y-1689460D02*
X408134Y-1698984D01*
X408134Y-1698984D02*
X389086Y-1698984D01*
X389086Y-1698984D02*
X370039Y-1689460D01*
X370039Y-1689460D02*
X360515Y-1679936D01*
X360515Y-1679936D02*
X350991Y-1660888D01*
X350991Y-1660888D02*
X341467Y-1622793D01*
X341467Y-1622793D02*
X341467Y-1575174D01*
X341467Y-1575174D02*
X350991Y-1537079D01*
X350991Y-1537079D02*
X360515Y-1518031D01*
X360515Y-1518031D02*
X370039Y-1508508D01*
X370039Y-1508508D02*
X389086Y-1498984D01*
X579563Y-1498984D02*
X598610Y-1498984D01*
X598610Y-1498984D02*
X617658Y-1508508D01*
X617658Y-1508508D02*
X627182Y-1518031D01*
X627182Y-1518031D02*
X636705Y-1537079D01*
X636705Y-1537079D02*
X646229Y-1575174D01*
X646229Y-1575174D02*
X646229Y-1622793D01*
X646229Y-1622793D02*
X636705Y-1660888D01*
X636705Y-1660888D02*
X627182Y-1679936D01*
X627182Y-1679936D02*
X617658Y-1689460D01*
X617658Y-1689460D02*
X598610Y-1698984D01*
X598610Y-1698984D02*
X579563Y-1698984D01*
X579563Y-1698984D02*
X560515Y-1689460D01*
X560515Y-1689460D02*
X550991Y-1679936D01*
X550991Y-1679936D02*
X541467Y-1660888D01*
X541467Y-1660888D02*
X531944Y-1622793D01*
X531944Y-1622793D02*
X531944Y-1575174D01*
X531944Y-1575174D02*
X541467Y-1537079D01*
X541467Y-1537079D02*
X550991Y-1518031D01*
X550991Y-1518031D02*
X560515Y-1508508D01*
X560515Y-1508508D02*
X579563Y-1498984D01*
X770039Y-1498984D02*
X789086Y-1498984D01*
X789086Y-1498984D02*
X808134Y-1508508D01*
X808134Y-1508508D02*
X817658Y-1518031D01*
X817658Y-1518031D02*
X827182Y-1537079D01*
X827182Y-1537079D02*
X836705Y-1575174D01*
X836705Y-1575174D02*
X836705Y-1622793D01*
X836705Y-1622793D02*
X827182Y-1660888D01*
X827182Y-1660888D02*
X817658Y-1679936D01*
X817658Y-1679936D02*
X808134Y-1689460D01*
X808134Y-1689460D02*
X789086Y-1698984D01*
X789086Y-1698984D02*
X770039Y-1698984D01*
X770039Y-1698984D02*
X750991Y-1689460D01*
X750991Y-1689460D02*
X741467Y-1679936D01*
X741467Y-1679936D02*
X731943Y-1660888D01*
X731943Y-1660888D02*
X722420Y-1622793D01*
X722420Y-1622793D02*
X722420Y-1575174D01*
X722420Y-1575174D02*
X731943Y-1537079D01*
X731943Y-1537079D02*
X741467Y-1518031D01*
X741467Y-1518031D02*
X750991Y-1508508D01*
X750991Y-1508508D02*
X770039Y-1498984D01*
X922420Y-1698984D02*
X922420Y-1565650D01*
X922420Y-1584698D02*
X931943Y-1575174D01*
X931943Y-1575174D02*
X950991Y-1565650D01*
X950991Y-1565650D02*
X979563Y-1565650D01*
X979563Y-1565650D02*
X998610Y-1575174D01*
X998610Y-1575174D02*
X1008134Y-1594222D01*
X1008134Y-1594222D02*
X1008134Y-1698984D01*
X1008134Y-1594222D02*
X1017658Y-1575174D01*
X1017658Y-1575174D02*
X1036705Y-1565650D01*
X1036705Y-1565650D02*
X1065277Y-1565650D01*
X1065277Y-1565650D02*
X1084325Y-1575174D01*
X1084325Y-1575174D02*
X1093848Y-1594222D01*
X1093848Y-1594222D02*
X1093848Y-1698984D01*
X1189086Y-1698984D02*
X1189086Y-1565650D01*
X1189086Y-1584698D02*
X1198610Y-1575174D01*
X1198610Y-1575174D02*
X1217658Y-1565650D01*
X1217658Y-1565650D02*
X1246229Y-1565650D01*
X1246229Y-1565650D02*
X1265277Y-1575174D01*
X1265277Y-1575174D02*
X1274801Y-1594222D01*
X1274801Y-1594222D02*
X1274801Y-1698984D01*
X1274801Y-1594222D02*
X1284325Y-1575174D01*
X1284325Y-1575174D02*
X1303372Y-1565650D01*
X1303372Y-1565650D02*
X1331944Y-1565650D01*
X1331944Y-1565650D02*
X1350991Y-1575174D01*
X1350991Y-1575174D02*
X1360515Y-1594222D01*
X1360515Y-1594222D02*
X1360515Y-1698984D01*
X1750991Y-1489460D02*
X1579563Y-1746603D01*
X2008134Y-1498984D02*
X2027182Y-1498984D01*
X2027182Y-1498984D02*
X2046229Y-1508508D01*
X2046229Y-1508508D02*
X2055753Y-1518031D01*
X2055753Y-1518031D02*
X2065277Y-1537079D01*
X2065277Y-1537079D02*
X2074801Y-1575174D01*
X2074801Y-1575174D02*
X2074801Y-1622793D01*
X2074801Y-1622793D02*
X2065277Y-1660888D01*
X2065277Y-1660888D02*
X2055753Y-1679936D01*
X2055753Y-1679936D02*
X2046229Y-1689460D01*
X2046229Y-1689460D02*
X2027182Y-1698984D01*
X2027182Y-1698984D02*
X2008134Y-1698984D01*
X2008134Y-1698984D02*
X1989086Y-1689460D01*
X1989086Y-1689460D02*
X1979563Y-1679936D01*
X1979563Y-1679936D02*
X1970039Y-1660888D01*
X1970039Y-1660888D02*
X1960515Y-1622793D01*
X1960515Y-1622793D02*
X1960515Y-1575174D01*
X1960515Y-1575174D02*
X1970039Y-1537079D01*
X1970039Y-1537079D02*
X1979563Y-1518031D01*
X1979563Y-1518031D02*
X1989086Y-1508508D01*
X1989086Y-1508508D02*
X2008134Y-1498984D01*
X2160515Y-1679936D02*
X2170039Y-1689460D01*
X2170039Y-1689460D02*
X2160515Y-1698984D01*
X2160515Y-1698984D02*
X2150991Y-1689460D01*
X2150991Y-1689460D02*
X2160515Y-1679936D01*
X2160515Y-1679936D02*
X2160515Y-1698984D01*
X2293848Y-1498984D02*
X2312896Y-1498984D01*
X2312896Y-1498984D02*
X2331944Y-1508508D01*
X2331944Y-1508508D02*
X2341468Y-1518031D01*
X2341468Y-1518031D02*
X2350991Y-1537079D01*
X2350991Y-1537079D02*
X2360515Y-1575174D01*
X2360515Y-1575174D02*
X2360515Y-1622793D01*
X2360515Y-1622793D02*
X2350991Y-1660888D01*
X2350991Y-1660888D02*
X2341468Y-1679936D01*
X2341468Y-1679936D02*
X2331944Y-1689460D01*
X2331944Y-1689460D02*
X2312896Y-1698984D01*
X2312896Y-1698984D02*
X2293848Y-1698984D01*
X2293848Y-1698984D02*
X2274801Y-1689460D01*
X2274801Y-1689460D02*
X2265277Y-1679936D01*
X2265277Y-1679936D02*
X2255753Y-1660888D01*
X2255753Y-1660888D02*
X2246229Y-1622793D01*
X2246229Y-1622793D02*
X2246229Y-1575174D01*
X2246229Y-1575174D02*
X2255753Y-1537079D01*
X2255753Y-1537079D02*
X2265277Y-1518031D01*
X2265277Y-1518031D02*
X2274801Y-1508508D01*
X2274801Y-1508508D02*
X2293848Y-1498984D01*
X2427182Y-1498984D02*
X2550991Y-1498984D01*
X2550991Y-1498984D02*
X2484325Y-1575174D01*
X2484325Y-1575174D02*
X2512896Y-1575174D01*
X2512896Y-1575174D02*
X2531944Y-1584698D01*
X2531944Y-1584698D02*
X2541468Y-1594222D01*
X2541468Y-1594222D02*
X2550991Y-1613269D01*
X2550991Y-1613269D02*
X2550991Y-1660888D01*
X2550991Y-1660888D02*
X2541468Y-1679936D01*
X2541468Y-1679936D02*
X2531944Y-1689460D01*
X2531944Y-1689460D02*
X2512896Y-1698984D01*
X2512896Y-1698984D02*
X2455753Y-1698984D01*
X2455753Y-1698984D02*
X2436706Y-1689460D01*
X2436706Y-1689460D02*
X2427182Y-1679936D01*
X2646229Y-1698984D02*
X2684325Y-1698984D01*
X2684325Y-1698984D02*
X2703372Y-1689460D01*
X2703372Y-1689460D02*
X2712896Y-1679936D01*
X2712896Y-1679936D02*
X2731944Y-1651365D01*
X2731944Y-1651365D02*
X2741468Y-1613269D01*
X2741468Y-1613269D02*
X2741468Y-1537079D01*
X2741468Y-1537079D02*
X2731944Y-1518031D01*
X2731944Y-1518031D02*
X2722420Y-1508508D01*
X2722420Y-1508508D02*
X2703372Y-1498984D01*
X2703372Y-1498984D02*
X2665277Y-1498984D01*
X2665277Y-1498984D02*
X2646229Y-1508508D01*
X2646229Y-1508508D02*
X2636706Y-1518031D01*
X2636706Y-1518031D02*
X2627182Y-1537079D01*
X2627182Y-1537079D02*
X2627182Y-1584698D01*
X2627182Y-1584698D02*
X2636706Y-1603746D01*
X2636706Y-1603746D02*
X2646229Y-1613269D01*
X2646229Y-1613269D02*
X2665277Y-1622793D01*
X2665277Y-1622793D02*
X2703372Y-1622793D01*
X2703372Y-1622793D02*
X2722420Y-1613269D01*
X2722420Y-1613269D02*
X2731944Y-1603746D01*
X2731944Y-1603746D02*
X2741468Y-1584698D01*
X2912896Y-1565650D02*
X2912896Y-1698984D01*
X2865277Y-1489460D02*
X2817658Y-1632317D01*
X2817658Y-1632317D02*
X2941467Y-1632317D01*
X3008134Y-1498984D02*
X3008134Y-1537079D01*
X3084325Y-1498984D02*
X3084325Y-1537079D01*
X3379563Y-1775174D02*
X3370039Y-1765650D01*
X3370039Y-1765650D02*
X3350991Y-1737079D01*
X3350991Y-1737079D02*
X3341468Y-1718031D01*
X3341468Y-1718031D02*
X3331944Y-1689460D01*
X3331944Y-1689460D02*
X3322420Y-1641841D01*
X3322420Y-1641841D02*
X3322420Y-1603746D01*
X3322420Y-1603746D02*
X3331944Y-1556127D01*
X3331944Y-1556127D02*
X3341468Y-1527555D01*
X3341468Y-1527555D02*
X3350991Y-1508508D01*
X3350991Y-1508508D02*
X3370039Y-1479936D01*
X3370039Y-1479936D02*
X3379563Y-1470412D01*
X3560515Y-1698984D02*
X3446229Y-1698984D01*
X3503372Y-1698984D02*
X3503372Y-1498984D01*
X3503372Y-1498984D02*
X3484325Y-1527555D01*
X3484325Y-1527555D02*
X3465277Y-1546603D01*
X3465277Y-1546603D02*
X3446229Y-1556127D01*
X3684325Y-1498984D02*
X3703372Y-1498984D01*
X3703372Y-1498984D02*
X3722420Y-1508508D01*
X3722420Y-1508508D02*
X3731944Y-1518031D01*
X3731944Y-1518031D02*
X3741468Y-1537079D01*
X3741468Y-1537079D02*
X3750991Y-1575174D01*
X3750991Y-1575174D02*
X3750991Y-1622793D01*
X3750991Y-1622793D02*
X3741468Y-1660888D01*
X3741468Y-1660888D02*
X3731944Y-1679936D01*
X3731944Y-1679936D02*
X3722420Y-1689460D01*
X3722420Y-1689460D02*
X3703372Y-1698984D01*
X3703372Y-1698984D02*
X3684325Y-1698984D01*
X3684325Y-1698984D02*
X3665277Y-1689460D01*
X3665277Y-1689460D02*
X3655753Y-1679936D01*
X3655753Y-1679936D02*
X3646229Y-1660888D01*
X3646229Y-1660888D02*
X3636706Y-1622793D01*
X3636706Y-1622793D02*
X3636706Y-1575174D01*
X3636706Y-1575174D02*
X3646229Y-1537079D01*
X3646229Y-1537079D02*
X3655753Y-1518031D01*
X3655753Y-1518031D02*
X3665277Y-1508508D01*
X3665277Y-1508508D02*
X3684325Y-1498984D01*
X3989087Y-1698984D02*
X3989087Y-1498984D01*
X4074801Y-1698984D02*
X4074801Y-1594222D01*
X4074801Y-1594222D02*
X4065277Y-1575174D01*
X4065277Y-1575174D02*
X4046230Y-1565650D01*
X4046230Y-1565650D02*
X4017658Y-1565650D01*
X4017658Y-1565650D02*
X3998610Y-1575174D01*
X3998610Y-1575174D02*
X3989087Y-1584698D01*
X4198611Y-1698984D02*
X4179563Y-1689460D01*
X4179563Y-1689460D02*
X4170039Y-1679936D01*
X4170039Y-1679936D02*
X4160515Y-1660888D01*
X4160515Y-1660888D02*
X4160515Y-1603746D01*
X4160515Y-1603746D02*
X4170039Y-1584698D01*
X4170039Y-1584698D02*
X4179563Y-1575174D01*
X4179563Y-1575174D02*
X4198611Y-1565650D01*
X4198611Y-1565650D02*
X4227182Y-1565650D01*
X4227182Y-1565650D02*
X4246230Y-1575174D01*
X4246230Y-1575174D02*
X4255753Y-1584698D01*
X4255753Y-1584698D02*
X4265277Y-1603746D01*
X4265277Y-1603746D02*
X4265277Y-1660888D01*
X4265277Y-1660888D02*
X4255753Y-1679936D01*
X4255753Y-1679936D02*
X4246230Y-1689460D01*
X4246230Y-1689460D02*
X4227182Y-1698984D01*
X4227182Y-1698984D02*
X4198611Y-1698984D01*
X4379563Y-1698984D02*
X4360515Y-1689460D01*
X4360515Y-1689460D02*
X4350992Y-1670412D01*
X4350992Y-1670412D02*
X4350992Y-1498984D01*
X4531944Y-1689460D02*
X4512896Y-1698984D01*
X4512896Y-1698984D02*
X4474801Y-1698984D01*
X4474801Y-1698984D02*
X4455753Y-1689460D01*
X4455753Y-1689460D02*
X4446230Y-1670412D01*
X4446230Y-1670412D02*
X4446230Y-1594222D01*
X4446230Y-1594222D02*
X4455753Y-1575174D01*
X4455753Y-1575174D02*
X4474801Y-1565650D01*
X4474801Y-1565650D02*
X4512896Y-1565650D01*
X4512896Y-1565650D02*
X4531944Y-1575174D01*
X4531944Y-1575174D02*
X4541468Y-1594222D01*
X4541468Y-1594222D02*
X4541468Y-1613269D01*
X4541468Y-1613269D02*
X4446230Y-1632317D01*
X4617658Y-1689460D02*
X4636706Y-1698984D01*
X4636706Y-1698984D02*
X4674801Y-1698984D01*
X4674801Y-1698984D02*
X4693849Y-1689460D01*
X4693849Y-1689460D02*
X4703373Y-1670412D01*
X4703373Y-1670412D02*
X4703373Y-1660888D01*
X4703373Y-1660888D02*
X4693849Y-1641841D01*
X4693849Y-1641841D02*
X4674801Y-1632317D01*
X4674801Y-1632317D02*
X4646230Y-1632317D01*
X4646230Y-1632317D02*
X4627182Y-1622793D01*
X4627182Y-1622793D02*
X4617658Y-1603746D01*
X4617658Y-1603746D02*
X4617658Y-1594222D01*
X4617658Y-1594222D02*
X4627182Y-1575174D01*
X4627182Y-1575174D02*
X4646230Y-1565650D01*
X4646230Y-1565650D02*
X4674801Y-1565650D01*
X4674801Y-1565650D02*
X4693849Y-1575174D01*
X4770039Y-1775174D02*
X4779563Y-1765650D01*
X4779563Y-1765650D02*
X4798611Y-1737079D01*
X4798611Y-1737079D02*
X4808134Y-1718031D01*
X4808134Y-1718031D02*
X4817658Y-1689460D01*
X4817658Y-1689460D02*
X4827182Y-1641841D01*
X4827182Y-1641841D02*
X4827182Y-1603746D01*
X4827182Y-1603746D02*
X4817658Y-1556127D01*
X4817658Y-1556127D02*
X4808134Y-1527555D01*
X4808134Y-1527555D02*
X4798611Y-1508508D01*
X4798611Y-1508508D02*
X4779563Y-1479936D01*
X4779563Y-1479936D02*
X4770039Y-1470412D01*
M02*
